<svg xmlns="http://www.w3.org/2000/svg" xmlns:xlink="http://www.w3.org/1999/xlink" width="500" zoomAndPan="magnify" viewBox="0 0 375 374.999991" height="500" preserveAspectRatio="xMidYMid meet" version="1.0"><defs><clipPath id="id1"><path d="M 108 58 L 271.339844 58 L 271.339844 314 L 108 314 Z M 108 58 " clip-rule="nonzero"/></clipPath></defs><path fill="#ffffff" d="M 224.527344 244.769531 C 225.242188 244.890625 225.960938 244.996094 226.675781 245.109375 C 227.4375 242.257812 228.324219 239.4375 229.21875 236.652344 C 229.335938 236.269531 228.800781 236.027344 228.582031 236.320312 C 231.550781 225.425781 235.972656 213.4375 243.71875 205.863281 C 244.140625 205.453125 243.523438 204.859375 243.089844 205.226562 C 232.386719 214.265625 227.511719 231.558594 224.421875 244.746094 L 224.527344 244.769531 " fill-opacity="1" fill-rule="nonzero"/><path fill="#ffffff" d="M 216.875 281.070312 C 216.640625 281.308594 215.914062 281.804688 215.984375 282.1875 L 216.089844 282.292969 C 216.472656 282.367188 216.96875 281.636719 217.199219 281.40625 C 217.414062 281.191406 217.078125 280.851562 216.875 281.070312 " fill-opacity="1" fill-rule="nonzero"/><path fill="#ffffff" d="M 214.695312 303.730469 C 208.722656 313.710938 198.539062 315.816406 187.417969 315.796875 C 181.625 315.785156 161.722656 314.441406 162.691406 304.949219 C 162.71875 304.710938 162.316406 304.652344 162.277344 304.890625 C 160.503906 315.285156 178.082031 317.296875 184.828125 317.78125 C 193.496094 318.410156 215.664062 316.785156 215.824219 304.039062 C 215.835938 303.421875 215 303.214844 214.695312 303.730469 " fill-opacity="1" fill-rule="nonzero"/><path fill="#ffffff" d="M 223.273438 165.289062 C 223.210938 165.363281 223.15625 165.445312 223.097656 165.519531 L 223.089844 165.519531 L 223.050781 165.578125 C 221.582031 167.4375 220.230469 169.375 218.9375 171.363281 C 217.375 173.144531 215.621094 174.75 213.636719 176.136719 C 205.660156 181.683594 205.09375 172.269531 205.996094 166.378906 C 206.199219 165.042969 204.480469 164.5625 203.980469 165.824219 C 201.988281 170.84375 199.886719 176.113281 196.15625 180.109375 C 191.175781 185.449219 187.945312 176.632812 187.265625 173.585938 C 187.09375 172.820312 187 172.035156 186.929688 171.246094 C 187.03125 169.265625 187.007812 167.441406 186.992188 166.097656 C 186.976562 164.65625 184.929688 164.707031 184.796875 166.097656 C 184.675781 167.394531 184.636719 169.132812 184.761719 171.003906 C 184.503906 176.691406 183.113281 183.132812 176.492188 181.570312 C 169.878906 180.011719 163.914062 174.113281 158.78125 170.042969 C 157.578125 169.082031 156.097656 170.53125 157.089844 171.738281 C 175.136719 193.628906 182.128906 225.875 182.855469 253.652344 C 182.890625 254.929688 184.828125 254.933594 184.839844 253.652344 C 185.101562 228.265625 178.160156 199.617188 164.144531 177.6875 C 168.644531 181.203125 173.707031 184.28125 178.933594 184.34375 C 182.972656 184.386719 185 181.347656 186.007812 177.601562 C 187.167969 180.933594 189.222656 183.574219 192.742188 183.605469 C 197.835938 183.648438 201.035156 178.433594 203.277344 173.273438 C 203.4375 176.824219 204.675781 179.988281 208.753906 180.328125 C 210.792969 180.496094 212.808594 179.777344 214.707031 178.570312 C 204.707031 197.75 200.976562 221 197.742188 241.71875 C 197.519531 243.152344 199.53125 243.789062 199.960938 242.328125 C 206.746094 219.269531 207.609375 193.96875 220.476562 173.273438 C 222.398438 170.96875 223.988281 168.527344 225.074219 166.679688 C 225.71875 165.578125 224.101562 164.25 223.273438 165.289062 " fill-opacity="1" fill-rule="nonzero"/><g clip-path="url(#id1)"><path fill="#ffffff" d="M 259.839844 184.433594 C 256.820312 189.921875 253.449219 195.277344 250.121094 200.644531 C 256.871094 183.992188 262.488281 167.019531 263.054688 148.792969 C 263.242188 142.636719 262.863281 136.539062 262.078125 130.492188 C 264.484375 138.683594 266.15625 147.140625 266.398438 155.558594 C 266.164062 165.25 264.085938 174.960938 259.839844 184.433594 Z M 244.875 88.628906 C 243.878906 87.132812 242.894531 85.640625 241.832031 84.183594 C 238.679688 79.851562 235.054688 75.929688 231.050781 72.375 C 228.960938 70.519531 226.753906 67.386719 224.058594 66.375 C 223.839844 66.296875 223.539062 66.464844 223.503906 66.695312 C 223.316406 67.730469 223.425781 67.464844 223.890625 68.859375 C 224.070312 69.390625 224.902344 69.171875 224.730469 68.632812 C 224.25 67.105469 227.453125 71.035156 227.167969 70.714844 C 228.519531 72.257812 230.152344 73.519531 231.652344 74.910156 C 234.242188 77.308594 236.5625 80.003906 238.730469 82.804688 C 236.300781 80.84375 233.6875 79.058594 230.820312 77.519531 C 225.015625 74.421875 218.828125 72.585938 212.480469 71.753906 C 205.808594 69.035156 198.992188 66.898438 191.503906 66.804688 C 191.097656 66.792969 190.679688 66.847656 190.265625 66.855469 C 189.511719 66.78125 188.765625 66.753906 188.011719 66.707031 C 197.96875 63.894531 208.554688 63.085938 218.773438 64.605469 C 219.347656 64.875 219.921875 65.136719 220.480469 65.429688 C 220.835938 65.617188 221.09375 65.28125 221.003906 64.984375 C 225.554688 65.820312 230.027344 67.082031 234.3125 68.917969 C 239.523438 71.152344 244.023438 74.128906 247.96875 77.652344 C 249.914062 85.707031 252.167969 93.609375 254.308594 101.496094 C 251.53125 96.875 248.445312 92.519531 244.875 88.628906 Z M 200.773438 71.285156 C 197.863281 70.945312 194.882812 70.773438 191.832031 70.804688 C 189.398438 70.832031 180.074219 70.914062 173.066406 72.464844 C 174.765625 71.636719 176.488281 70.859375 178.242188 70.136719 C 183.265625 68.75 188.414062 67.921875 193.535156 67.949219 C 199.167969 67.980469 204.695312 69.488281 210.097656 71.515625 C 207.011719 71.230469 203.898438 71.144531 200.773438 71.285156 Z M 164.859375 80.671875 C 159.171875 83.332031 153.660156 86.585938 148.453125 90.3125 C 153.359375 85.1875 158.929688 80.636719 165.03125 76.84375 C 164.820312 77.445312 164.808594 78.101562 165.035156 78.824219 C 165.105469 79.046875 165.445312 78.957031 165.382812 78.730469 C 163.867188 73.195312 182.761719 72.175781 192.585938 72.089844 C 182.910156 73.542969 173.410156 76.675781 164.859375 80.671875 Z M 143.371094 94.203125 C 138.148438 98.464844 133.3125 103.226562 129.117188 108.476562 C 130.316406 105.582031 131.691406 102.742188 133.238281 99.976562 C 140.035156 91.480469 148.851562 84.363281 158.3125 78.75 C 159.730469 77.910156 161.195312 77.105469 162.675781 76.328125 C 155.316406 81.246094 148.757812 87.292969 143.371094 94.203125 Z M 126.320312 112.1875 C 126.617188 110.976562 126.976562 109.78125 127.335938 108.589844 C 128.214844 107.035156 129.191406 105.539062 130.203125 104.054688 C 129.089844 106.328125 128.046875 108.640625 127.144531 111.019531 C 126.859375 111.402344 126.605469 111.800781 126.320312 112.1875 Z M 119.148438 124.210938 C 119.023438 124.472656 118.914062 124.742188 118.789062 125.007812 C 121.378906 110.292969 127.273438 96.363281 137.773438 85.277344 C 143.570312 79.15625 150.414062 74.769531 157.824219 71.816406 C 152.773438 74.730469 147.953125 78.042969 143.511719 81.695312 C 136.285156 87.648438 131.453125 94.792969 128.300781 102.65625 C 124.371094 109.660156 121.355469 117.148438 119.148438 124.210938 Z M 125.566406 172.242188 C 119.304688 164.363281 117.199219 154.515625 117.507812 144.5 C 117.847656 140.882812 118.609375 137.300781 119.664062 133.785156 C 119.847656 133.835938 120.066406 133.757812 120.078125 133.496094 C 120.097656 133 120.167969 132.523438 120.199219 132.035156 C 120.742188 130.414062 121.335938 128.800781 122.023438 127.226562 C 122.40625 126.355469 122.839844 125.515625 123.25 124.660156 C 121.347656 134.5625 121.199219 144.984375 123.128906 155.457031 C 123.195312 155.800781 123.691406 155.648438 123.640625 155.3125 C 122.695312 148.554688 122.46875 141.789062 122.9375 135.128906 C 122.90625 147.6875 124.421875 160.488281 125.566406 172.242188 Z M 136.667969 90.421875 C 138.027344 88.714844 139.503906 87.058594 141.144531 85.472656 C 145.628906 81.136719 151.058594 77 157.058594 73.375 C 154.144531 75.273438 151.347656 77.34375 148.75 79.628906 C 144.226562 82.5 140.214844 86.203125 136.667969 90.421875 Z M 167.730469 68.761719 C 171.972656 67.828125 176.332031 67.320312 180.71875 67.167969 C 178.011719 68.160156 175.355469 69.285156 172.765625 70.546875 C 167.46875 72.523438 162.367188 75.070312 157.707031 77.71875 C 150.761719 81.675781 143.707031 86.914062 137.558594 93.097656 C 137.65625 92.957031 137.746094 92.808594 137.847656 92.664062 C 140.148438 89.4375 142.707031 86.488281 145.453125 83.769531 C 147.734375 81.730469 150.109375 79.808594 152.648438 78.152344 C 152.90625 77.984375 152.8125 77.671875 152.597656 77.574219 C 157.273438 74.050781 162.367188 71.125 167.730469 68.761719 Z M 195.214844 61.203125 C 189.140625 61.4375 183.339844 62.390625 177.832031 63.9375 C 189.800781 60.183594 202.328125 59.128906 213.4375 62.546875 C 205.257812 61.882812 196.832031 62.597656 188.628906 64.699219 C 186.570312 65.226562 184.542969 65.835938 182.542969 66.515625 C 178.738281 66.507812 174.964844 66.753906 171.269531 67.328125 C 178.890625 64.375 186.980469 62.488281 195.214844 61.695312 C 195.523438 61.667969 195.539062 61.191406 195.214844 61.203125 Z M 128.949219 189.054688 C 131.289062 196.777344 136.320312 203.652344 141.152344 209.964844 C 142.683594 213.953125 144.75 217.757812 146.992188 221.472656 C 141.222656 215.992188 135.417969 211.933594 130.671875 205.234375 C 129.816406 204.039062 129.070312 202.769531 128.300781 201.523438 C 129.226562 202.15625 130.175781 202.761719 131.175781 203.320312 C 131.488281 203.496094 131.875 203.039062 131.574219 202.804688 C 129.621094 201.28125 127.855469 199.605469 126.179688 197.851562 C 123.648438 193.15625 121.554688 188.222656 119.746094 183.21875 C 124.265625 189.613281 128.953125 195.882812 133.3125 202.390625 C 133.375 202.480469 133.515625 202.402344 133.460938 202.308594 C 133.183594 201.878906 132.898438 201.464844 132.617188 201.035156 C 132.695312 201.128906 132.867188 201.085938 132.828125 200.953125 C 131.441406 196.28125 129.632812 191.785156 127.707031 187.347656 C 128.113281 187.917969 128.523438 188.488281 128.949219 189.054688 Z M 144.828125 208.050781 C 144.894531 208.160156 144.96875 208.273438 145.027344 208.382812 C 145.089844 208.484375 145.1875 208.488281 145.265625 208.460938 C 147.429688 210.476562 149.382812 212.523438 150.792969 214.703125 C 151.636719 216.015625 152.4375 217.351562 153.203125 218.703125 C 153.304688 220.113281 153.457031 221.523438 153.648438 222.925781 C 149.5 217.3125 145.011719 211.941406 140.832031 206.375 C 140.5625 205.542969 140.324219 204.695312 140.117188 203.847656 C 141.707031 205.261719 143.3125 206.648438 144.828125 208.050781 Z M 155.535156 232.71875 C 155.109375 232.042969 154.6875 231.378906 154.273438 230.722656 C 150.625 224.921875 146.515625 219.117188 143.488281 212.90625 C 147.003906 217.324219 150.644531 221.652344 154.132812 226.09375 C 154.519531 228.308594 154.996094 230.519531 155.535156 232.71875 Z M 158.675781 230.164062 L 158.675781 230.222656 C 157.570312 228.453125 156.375 226.738281 155.164062 225.035156 C 154.871094 223.675781 154.617188 222.316406 154.402344 220.945312 C 155.996094 223.953125 157.414062 227.03125 158.675781 230.164062 Z M 159.441406 239.308594 C 159.296875 239.054688 159.160156 238.796875 159.023438 238.539062 C 157.914062 235.207031 156.859375 231.859375 155.984375 228.464844 C 156.96875 229.769531 157.894531 231.117188 158.835938 232.449219 C 159 234.746094 159.203125 237.03125 159.441406 239.308594 Z M 160.433594 234.675781 C 163.929688 244.722656 165.882812 255.273438 166.882812 265.90625 C 166.679688 265.804688 166.476562 265.6875 166.273438 265.582031 C 166.105469 264.117188 165.894531 262.667969 165.640625 261.222656 C 165.789062 261.253906 165.929688 261.25 166.085938 261.289062 C 166.234375 261.316406 166.292969 261.109375 166.148438 261.058594 C 165.953125 260.996094 165.769531 260.96875 165.574219 260.917969 C 165.324219 259.570312 165.046875 258.230469 164.722656 256.902344 C 164.847656 252.195312 163.410156 247.519531 161.347656 243.070312 C 160.886719 240.074219 160.414062 237.085938 160.027344 234.113281 C 160.15625 234.304688 160.300781 234.484375 160.433594 234.675781 Z M 163.625 264.007812 C 163.832031 263.042969 163.984375 262.054688 164.101562 261.050781 L 164.203125 261.042969 C 164.617188 262.394531 164.988281 263.746094 165.359375 265.085938 C 164.765625 264.753906 164.191406 264.394531 163.625 264.007812 Z M 167.246094 270.292969 C 167.304688 271.191406 168.566406 271.191406 168.632812 270.292969 C 168.679688 269.511719 168.675781 268.761719 168.707031 267.988281 C 168.835938 268.011719 168.96875 268.035156 169.105469 268.0625 C 171.527344 268.789062 173.984375 269.265625 175.910156 269.667969 C 183.40625 271.234375 191.203125 271.765625 198.851562 271.4375 C 199.152344 271.425781 199.152344 270.988281 198.851562 270.972656 C 192.949219 270.644531 185.917969 270.511719 179.175781 269.445312 C 186.402344 270.085938 193.699219 269.835938 200.4375 268.28125 C 199.917969 267.804688 199.464844 267.246094 199.082031 266.644531 C 200.71875 266.46875 202.335938 266.207031 203.863281 265.980469 C 208.128906 265.359375 213.289062 265.109375 217.226562 263.101562 C 218.21875 263.105469 219.207031 263.136719 220.167969 263.132812 C 223.375 263.128906 222.207031 268.269531 221.59375 269.539062 C 221.300781 270.15625 220.914062 270.613281 220.472656 270.984375 C 219.917969 270.972656 219.359375 270.96875 218.808594 270.96875 C 211.769531 274.800781 201.984375 275.027344 194.625 274.761719 C 192.503906 274.6875 190.394531 274.542969 188.277344 274.378906 C 188.585938 274.003906 188.886719 273.632812 189.144531 273.203125 C 189.308594 272.925781 188.964844 272.519531 188.679688 272.734375 C 187.921875 273.304688 187.144531 273.78125 186.351562 274.210938 C 184.492188 274.046875 182.632812 273.867188 180.789062 273.652344 C 180.28125 273.59375 168.84375 272.042969 169.96875 270.417969 C 170.128906 270.191406 169.753906 269.898438 169.585938 270.121094 C 167.609375 272.648438 176.664062 274.5625 183.160156 275.574219 C 181.449219 276.136719 179.695312 276.488281 177.902344 276.65625 C 177.242188 276.507812 176.597656 276.382812 175.929688 276.226562 C 172.074219 275.304688 168.265625 274.125 164.535156 272.789062 C 162.179688 271.941406 159.878906 270.960938 157.664062 269.800781 C 156.382812 269.132812 155.808594 268.460938 155.691406 267.820312 C 155.808594 267.589844 155.90625 267.410156 155.9375 267.339844 C 156.222656 266.785156 156.554688 266.273438 156.882812 265.757812 C 157.066406 265.621094 157.261719 265.496094 157.476562 265.375 C 158.703125 265.714844 159.941406 266.046875 161.234375 266.367188 C 160.886719 267.332031 160.535156 268.292969 160.320312 269.289062 C 160.277344 269.523438 160.488281 269.824219 160.761719 269.722656 C 160.929688 269.65625 161.070312 269.558594 161.222656 269.464844 C 161.207031 269.742188 161.210938 270.015625 161.191406 270.292969 C 161.15625 270.730469 161.847656 270.8125 161.945312 270.398438 C 162.097656 269.707031 162.207031 269.015625 162.328125 268.324219 C 162.601562 267.859375 162.804688 267.332031 162.972656 266.785156 C 164.300781 267.09375 165.65625 267.394531 167.03125 267.667969 C 167.101562 268.542969 167.179688 269.417969 167.246094 270.292969 Z M 222.671875 275.863281 C 222.851562 276.417969 223.019531 276.972656 223.242188 277.5 C 222.859375 278.132812 222.117188 278.921875 221 279.941406 C 218.246094 282.441406 215.148438 284.183594 211.769531 285.484375 C 212.15625 285.121094 212.515625 284.738281 212.84375 284.328125 C 213.121094 283.984375 212.878906 283.289062 212.359375 283.488281 C 208.070312 285.140625 204.089844 286.445312 200.070312 287.382812 C 200.003906 287.285156 199.917969 287.207031 199.761719 287.214844 C 194.761719 287.539062 189.734375 287.734375 184.71875 287.863281 C 183.378906 287.496094 182.066406 287.046875 180.808594 286.460938 C 180.476562 286.300781 180.222656 286.742188 180.523438 286.957031 C 181.015625 287.308594 181.542969 287.621094 182.066406 287.921875 C 180.898438 287.945312 179.730469 287.996094 178.566406 288.003906 C 177.78125 288.003906 175.828125 288.019531 173.441406 287.9375 C 171.445312 287.621094 169.453125 287.265625 167.46875 286.859375 C 165.28125 286.417969 163.125 285.828125 160.980469 285.210938 C 160.386719 285.023438 159.792969 284.835938 159.203125 284.644531 C 159.085938 284.546875 158.945312 284.46875 158.828125 284.371094 C 158.757812 284.207031 158.730469 284.03125 158.707031 283.851562 C 159.898438 284.007812 161.246094 284.210938 161.570312 284.207031 C 161.878906 284.207031 161.878906 283.742188 161.570312 283.738281 C 160.609375 283.75 159.644531 283.71875 158.6875 283.664062 C 158.683594 283.003906 159.039062 282.242188 159.882812 281.367188 C 160.046875 281.199219 159.792969 280.949219 159.625 281.109375 C 158.726562 281.96875 158.179688 282.730469 157.878906 283.425781 C 156.695312 282.089844 155.867188 280.5625 155.691406 278.859375 C 157.125 277.488281 159.390625 276.773438 161.644531 276.828125 C 166.917969 278.230469 172.984375 279.289062 178.253906 278.828125 C 181.246094 279.519531 184.25 280.109375 187.265625 280.507812 C 195.25 281.585938 206.613281 283.101562 213.628906 277.988281 C 214.046875 277.679688 213.804688 277.03125 213.277344 277.144531 C 202.882812 279.410156 193.429688 279.40625 183.410156 277.730469 C 184.546875 277.304688 185.589844 276.75 186.515625 276.0625 C 187.847656 276.238281 188.824219 276.351562 189.171875 276.382812 C 196.804688 277.179688 207.335938 277.761719 215.746094 274.9375 C 216.90625 275.046875 218.074219 275.097656 219.238281 275.125 C 219.328125 275.316406 219.476562 275.472656 219.761719 275.480469 C 221.121094 275.53125 222.050781 275.65625 222.671875 275.863281 Z M 160.339844 289.027344 C 157.949219 288.695312 155.867188 287.492188 154.710938 284.675781 C 154.191406 283.414062 154.097656 282.296875 154.296875 281.320312 C 154.601562 282.023438 155.015625 282.699219 155.480469 283.347656 L 155.382812 283.339844 C 154.710938 283.242188 154.148438 284.1875 154.875 284.539062 C 155.796875 284.980469 156.738281 285.375 157.679688 285.765625 C 157.921875 285.972656 158.160156 286.195312 158.410156 286.386719 C 158.902344 286.882812 159.601562 287.296875 160.40625 287.652344 C 160.820312 287.867188 161.25 288.015625 161.675781 288.171875 C 161.175781 288.363281 160.726562 288.648438 160.339844 289.027344 Z M 164.171875 298.042969 C 161.707031 296.800781 159.6875 295.042969 159.90625 292.902344 C 160.125 293.425781 160.390625 293.933594 160.660156 294.355469 C 161.523438 295.71875 162.757812 296.964844 164.171875 298.042969 Z M 153.835938 272.71875 C 153.445312 272.585938 154.296875 270.660156 155.027344 269.144531 C 157.058594 271.367188 161.761719 273.640625 165.285156 274.960938 C 166.695312 275.492188 168.136719 275.96875 169.578125 276.4375 C 167.769531 276.21875 165.964844 275.925781 164.191406 275.589844 C 161.636719 275.097656 159.132812 274.386719 156.652344 273.609375 C 156.480469 273.34375 156.167969 273.226562 155.859375 273.359375 C 155.183594 273.140625 154.503906 272.949219 153.835938 272.71875 Z M 160.386719 262.0625 L 160.40625 262.234375 C 160.652344 262.75 160.992188 263.199219 161.347656 263.640625 C 161.351562 264.136719 161.351562 264.628906 161.355469 265.121094 C 160.628906 264.953125 159.921875 264.769531 159.207031 264.589844 C 159.722656 264.40625 160.242188 264.257812 160.730469 264.15625 C 161.058594 264.089844 160.910156 263.613281 160.59375 263.664062 C 159.554688 263.832031 158.703125 264.03125 157.929688 264.242188 C 158.648438 263.359375 159.460938 262.613281 160.386719 262.0625 Z M 111.996094 171.597656 C 113.660156 174.332031 115.421875 177.003906 117.226562 179.640625 C 117.628906 181.035156 118.019531 182.433594 118.46875 183.8125 C 119.484375 186.960938 120.726562 190.03125 122.074219 193.050781 C 117.367188 186.734375 114.0625 179.398438 111.996094 171.597656 Z M 175.304688 302.523438 C 184.667969 305.742188 197.226562 304.671875 205.558594 300.28125 C 209.128906 299.886719 212.523438 299.222656 215.492188 298.289062 C 215.71875 301.472656 207.585938 304.105469 201.777344 305.558594 C 201.675781 305.484375 201.539062 305.445312 201.382812 305.519531 C 201.144531 305.628906 200.898438 305.726562 200.660156 305.828125 C 198.695312 306.292969 197.117188 306.605469 196.445312 306.722656 C 187.699219 308.253906 175.742188 309.21875 168.039062 303.859375 C 167.84375 303.726562 167.636719 304.023438 167.796875 304.183594 C 173.183594 309.6875 182.199219 310.46875 190.683594 309.667969 C 188.449219 310.371094 186.191406 311 183.855469 311.4375 C 179.878906 312.175781 175.574219 312.171875 171.851562 310.464844 C 169.847656 309.546875 168.796875 307.574219 167.605469 305.851562 C 165.910156 303.394531 167.664062 302.40625 169.589844 301.941406 C 171.441406 302.328125 173.378906 302.539062 175.304688 302.523438 Z M 185.035156 299.765625 C 188.589844 300.382812 192.578125 300.710938 196.640625 300.734375 C 191.152344 302.128906 185.28125 302.726562 179.914062 301.988281 C 181.773438 301.550781 183.507812 300.808594 185.035156 299.765625 Z M 271.015625 149 C 270.988281 148.574219 270.351562 148.566406 270.351562 149 C 270.355469 149.601562 270.316406 150.1875 270.304688 150.785156 C 269.902344 135.5 264.585938 120.535156 257.503906 107.136719 C 257.417969 106.972656 257.324219 106.820312 257.234375 106.660156 C 254.769531 97.261719 251.84375 87.957031 249.117188 78.710938 C 256.792969 85.972656 262.292969 95.355469 266.734375 105.40625 C 266.902344 105.792969 267.5 105.511719 267.394531 105.128906 C 260.722656 80.695312 240.972656 66.589844 218.476562 63.148438 C 207.925781 56.773438 193.84375 58.628906 182.484375 61.59375 C 175.617188 63.386719 168.886719 66.011719 162.476562 69.285156 C 154.074219 71.804688 146.1875 76.066406 139.253906 82.339844 C 126.359375 94.011719 119.660156 110.703125 117.5625 127.761719 C 117.128906 128.792969 116.707031 129.835938 116.332031 130.898438 C 116.140625 131.433594 116 131.949219 115.824219 132.476562 C 115.734375 132.355469 115.511719 132.339844 115.460938 132.527344 C 114.996094 134.316406 114.628906 136.089844 114.3125 137.847656 C 112.644531 145.164062 112.640625 151.949219 113.859375 158.351562 C 115.40625 169.441406 119.789062 180.027344 126.375 190.152344 C 126.53125 190.394531 126.914062 190.167969 126.757812 189.925781 C 121.914062 182.472656 118.476562 175.003906 116.398438 167.324219 C 118.71875 173.46875 122.0625 179.292969 125.988281 184.945312 C 128.382812 190.1875 130.714844 195.453125 132.546875 200.933594 C 128.265625 194.394531 123.625 188.101562 119.183594 181.683594 C 113.707031 165.992188 111.230469 148.449219 113.761719 131.941406 C 113.796875 131.742188 113.488281 131.652344 113.453125 131.855469 C 110.933594 147.238281 112.648438 163.269531 116.820312 178.28125 C 115.015625 175.585938 113.25 172.859375 111.59375 170.066406 C 107.292969 152.257812 109.300781 132.214844 115.871094 116.230469 C 115.96875 115.992188 115.566406 115.824219 115.464844 116.054688 C 104.984375 139.535156 103.375 180.296875 124.960938 198.933594 C 126.535156 201.875 128.222656 204.757812 130.117188 207.503906 C 134.042969 213.21875 140.035156 220.535156 146.890625 222.667969 C 147.195312 222.761719 147.433594 222.535156 147.488281 222.269531 C 148.054688 223.195312 148.621094 224.121094 149.203125 225.035156 C 152.132812 229.65625 154.796875 234.058594 157.101562 238.578125 C 158.148438 242.183594 159.316406 245.761719 160.484375 249.332031 C 160.871094 253.144531 161.15625 256.972656 161.28125 260.820312 C 159.449219 261.292969 157.941406 262.4375 156.664062 263.945312 C 155.921875 263.761719 155.171875 263.589844 154.441406 263.394531 C 153.773438 263.214844 153.5 264.226562 154.15625 264.425781 C 154.722656 264.59375 155.3125 264.757812 155.894531 264.921875 L 155.824219 265.03125 C 154.28125 265.824219 153.835938 266.753906 154.167969 267.746094 C 153.296875 269.351562 152.527344 271.046875 151.820312 272.644531 C 151.601562 273.132812 151.78125 273.574219 152.277344 273.769531 C 152.988281 274.050781 153.78125 274.351562 154.648438 274.667969 C 153.84375 275.890625 153.550781 277.214844 153.621094 278.539062 C 152.261719 280.328125 152.074219 282.828125 152.625 284.929688 C 153.589844 288.558594 156.355469 290.46875 159.484375 290.984375 L 159.484375 291.023438 C 156.9375 294.527344 159.785156 298.140625 164.210938 300.1875 C 165.398438 300.734375 166.722656 301.175781 168.101562 301.546875 C 166.8125 301.824219 165.71875 302.332031 165.613281 303.335938 C 165.203125 307.179688 169.023438 310.894531 172.179688 312.394531 C 179.355469 315.800781 190.601562 312.824219 198.105469 308.59375 C 200.070312 308.21875 201.9375 307.808594 203.613281 307.398438 C 206.351562 306.726562 215.371094 303.828125 217.476562 300.019531 C 217.730469 300.507812 217.980469 300.996094 218.238281 301.476562 C 218.84375 302.59375 219.371094 303.84375 220.59375 304.335938 C 220.785156 304.414062 220.984375 304.21875 220.984375 304.039062 C 221.003906 302.855469 220.265625 302.046875 219.652344 301.085938 C 219.085938 300.191406 218.484375 299.300781 217.933594 298.386719 C 217.929688 298.085938 217.875 297.78125 217.769531 297.476562 C 217.886719 297.425781 218 297.375 218.113281 297.328125 C 219.359375 298.046875 220.199219 298.914062 220.472656 300.445312 C 220.511719 300.703125 220.863281 300.609375 220.886719 300.390625 C 221.0625 298.738281 220.25 297.726562 219.046875 296.921875 C 225.289062 294.039062 228.199219 289.441406 223.742188 282.859375 C 223.484375 282.476562 222.945312 282.726562 223.019531 283.164062 C 223.992188 288.726562 223.355469 292.792969 217.960938 295.445312 C 217.582031 295.632812 217.183594 295.78125 216.789062 295.9375 L 216.574219 295.746094 L 216.558594 295.710938 C 216.496094 295.550781 216.375 295.476562 216.242188 295.441406 C 216.066406 295.285156 215.929688 295.128906 215.71875 294.972656 C 214.808594 294.285156 213.707031 295.773438 214.519531 296.535156 L 214.664062 296.691406 C 212.964844 297.1875 211.195312 297.53125 209.398438 297.742188 C 210.375 296.9375 211.253906 296.082031 211.96875 295.144531 C 212.246094 294.78125 211.710938 294.296875 211.355469 294.53125 C 209.394531 295.816406 207.066406 297.023438 204.519531 298.101562 C 203.398438 298.144531 202.292969 298.167969 201.214844 298.191406 C 191.796875 298.355469 182.574219 296.890625 173.472656 294.628906 C 173.183594 294.558594 172.972656 294.914062 173.183594 295.128906 C 174.953125 296.949219 178.371094 298.351562 182.648438 299.300781 C 180.925781 299.867188 179.144531 300.222656 177.339844 300.363281 C 177.339844 300.199219 177.246094 300.050781 177.027344 300.058594 C 175.246094 300.128906 173.417969 299.890625 171.632812 299.429688 C 168.816406 297.941406 166.382812 295.828125 164.566406 292.933594 C 164.347656 292.589844 163.878906 292.890625 164.035156 293.25 C 164.757812 294.914062 165.839844 296.34375 167.097656 297.617188 C 165.078125 296.480469 163.285156 294.972656 161.960938 293.097656 C 161.425781 292.347656 161.234375 291.703125 161.25 291.148438 C 163.085938 291.132812 164.933594 290.640625 166.585938 289.765625 C 166.703125 289.777344 166.820312 289.78125 166.933594 289.800781 C 167.121094 289.835938 167.339844 289.753906 167.386719 289.539062 L 167.410156 289.34375 L 167.417969 289.34375 C 167.972656 289.410156 168.496094 289.46875 168.945312 289.511719 C 169.816406 289.597656 170.71875 289.671875 171.613281 289.742188 C 176.207031 290.574219 180.867188 291.050781 185.46875 291.277344 C 188.679688 291.433594 192.734375 291.472656 196.824219 291.035156 C 204.796875 290.753906 213.089844 288.101562 218.679688 284.484375 C 220.234375 283.476562 222.730469 281.859375 224.527344 279.949219 C 225.378906 281.289062 226.425781 282.476562 227.722656 283.445312 C 228.089844 283.722656 228.558594 283.195312 228.335938 282.832031 C 227.367188 281.277344 226.613281 279.648438 225.996094 277.980469 C 226.410156 277.226562 226.695312 276.453125 226.695312 275.664062 C 226.695312 275.425781 226.613281 275.257812 226.5625 275.0625 C 226.726562 275.058594 226.878906 275.058594 227.039062 275.058594 C 227.65625 275.058594 228.058594 274.558594 228.097656 273.992188 C 227.601562 273.949219 227.101562 273.875 226.589844 273.695312 C 225.929688 273.496094 225.3125 273.214844 224.664062 272.972656 L 224.535156 272.980469 L 224.527344 272.921875 C 224.003906 272.722656 223.464844 272.558594 222.953125 272.324219 C 222.695312 272.222656 222.472656 272.082031 222.246094 271.957031 C 224.582031 269.300781 225.515625 264.910156 223.519531 262.246094 C 223.464844 255.027344 223.019531 247.835938 224.125 240.667969 L 224.042969 240.644531 C 222.820312 247.730469 223.207031 254.8125 223.277344 261.960938 C 223.160156 261.828125 223.070312 261.671875 222.9375 261.550781 C 221.050781 259.839844 216.324219 260.867188 214.125 261.023438 C 209.640625 261.332031 205.320312 263.117188 200.945312 264.191406 C 200.234375 264.269531 199.519531 264.355469 198.804688 264.441406 C 198.359375 264.574219 197.914062 264.710938 197.445312 264.804688 C 192.742188 265.757812 188.097656 264.703125 183.394531 264.363281 C 182.207031 264.277344 181.1875 263.941406 180.324219 263.441406 C 178.625 263.304688 176.921875 263.152344 175.210938 262.996094 C 174.628906 262.941406 174.09375 262.828125 173.59375 262.667969 C 173.257812 262.644531 172.917969 262.644531 172.578125 262.613281 C 172.742188 262.550781 172.90625 262.507812 173.066406 262.449219 C 172.515625 262.21875 172.015625 261.941406 171.570312 261.605469 C 170.886719 261.769531 170.203125 261.902344 169.511719 262.101562 C 168.609375 262.363281 168.636719 263.625 169.511719 263.898438 C 177.605469 266.429688 186.21875 267.339844 194.722656 267.296875 C 192.878906 267.59375 190.988281 267.832031 189.003906 267.960938 C 182.257812 268.40625 175.453125 267.792969 168.75 266.625 C 169.230469 250.152344 165.375 235.230469 158.507812 220.046875 C 155.445312 213.285156 151.574219 208.257812 146.179688 203.261719 C 142.683594 200.023438 139.179688 196.894531 136.183594 193.359375 C 135.621094 192.542969 135.066406 191.722656 134.511719 190.90625 L 134.539062 190.851562 C 134.28125 190.515625 134.035156 190.171875 133.777344 189.835938 C 133.003906 188.699219 132.238281 187.566406 131.480469 186.433594 C 131.140625 185.75 130.792969 185.082031 130.496094 184.359375 C 130.359375 184.007812 130.082031 183.898438 129.800781 183.894531 C 126.386719 178.660156 123.289062 173.289062 121.011719 167.539062 C 122.304688 169.785156 123.878906 171.894531 125.71875 173.863281 C 125.820312 175.003906 125.929688 176.148438 126.027344 177.269531 C 126.039062 177.378906 126.203125 177.382812 126.199219 177.269531 C 126.148438 176.261719 126.097656 175.242188 126.039062 174.214844 C 126.835938 175.042969 127.671875 175.847656 128.585938 176.617188 C 128.933594 176.914062 129.441406 176.421875 129.097656 176.101562 C 127.945312 175.042969 126.90625 173.929688 125.949219 172.777344 C 124.984375 157.46875 122.859375 140.558594 124.296875 124.6875 C 124.515625 123.554688 124.738281 122.421875 125 121.304688 C 127.816406 116.234375 131.261719 111.519531 135.175781 107.171875 C 130.492188 116.585938 127.804688 127.023438 127.75 138.054688 C 127.75 138.289062 128.109375 138.289062 128.113281 138.054688 C 128.304688 125.796875 131.832031 114.496094 137.652344 104.558594 C 149.472656 92.480469 164.957031 83.597656 180.542969 78.757812 C 191.925781 75.21875 204.128906 74.105469 215.851562 76.410156 C 224.355469 80.277344 231.5625 86.546875 237.75 94.488281 C 237.949219 94.75 238.367188 94.40625 238.199219 94.136719 C 233.644531 86.957031 227.933594 81.59375 221.371094 77.824219 C 233.300781 81.625 242.242188 89.875 249.121094 100.433594 C 250.800781 103.011719 252.34375 105.664062 253.8125 108.324219 C 254.496094 109.84375 255.171875 111.355469 255.804688 112.886719 C 256.96875 115.695312 258.089844 118.585938 259.148438 121.519531 C 260.753906 129.585938 261.84375 137.777344 261.925781 146.265625 C 262.125 168.320312 253.363281 186.878906 246.308594 206.886719 C 244.03125 210.699219 241.859375 214.539062 239.933594 218.464844 C 237.601562 222.449219 235.429688 226.503906 233.535156 230.644531 C 233.550781 230.328125 233.605469 230.023438 233.617188 229.714844 C 233.636719 229.273438 233.226562 229.039062 232.851562 229.082031 C 232.925781 228.847656 233 228.613281 233.074219 228.375 C 233.121094 228.214844 232.878906 228.152344 232.824219 228.308594 C 232.710938 228.625 232.605469 228.945312 232.492188 229.261719 L 232.371094 229.371094 C 230.382812 233.066406 229.359375 237.019531 228.601562 241.050781 C 227.394531 244.980469 226.277344 248.9375 225.265625 252.914062 C 225.203125 253.15625 225.570312 253.257812 225.632812 253.015625 C 226.335938 250.253906 227.128906 247.519531 227.949219 244.792969 C 227.65625 246.59375 227.382812 248.398438 227.058594 250.191406 C 226.6875 251.253906 226.335938 252.320312 225.996094 253.390625 C 225.925781 253.421875 225.863281 253.476562 225.835938 253.574219 C 225.519531 254.933594 225.046875 256.195312 224.777344 257.566406 C 224.609375 258.4375 225.898438 258.8125 226.113281 257.9375 C 226.335938 257.019531 226.601562 256.105469 226.867188 255.195312 C 227.492188 253.660156 227.980469 252.074219 228.371094 250.449219 C 228.914062 248.847656 229.472656 247.246094 230.015625 245.636719 C 230.410156 245.707031 230.804688 245.761719 231.199219 245.832031 C 231.671875 243.90625 232.195312 241.988281 232.820312 240.105469 C 232.535156 242.050781 232.386719 244.039062 232.296875 246.058594 C 232.546875 246.117188 232.800781 246.175781 233.046875 246.238281 C 233.773438 240.335938 235.21875 234.746094 237.210938 229.375 C 240.664062 222.167969 244.902344 215.234375 249.203125 208.460938 C 257.488281 195.410156 265.089844 183.074219 268.5 168.414062 C 270.378906 162.175781 271.398438 155.707031 271.015625 149 " fill-opacity="1" fill-rule="nonzero"/></g></svg>