<?xml version="1.0" encoding="UTF-8"?>
<svg xmlns="http://www.w3.org/2000/svg" xmlns:xlink="http://www.w3.org/1999/xlink" width="512px" height="512px" viewBox="0 0 512 512" version="1.1">
<defs>
<clipPath id="clip1">
  <path d="M 147.457031 80 L 370.46875 80 L 370.46875 428.714844 L 147.457031 428.714844 Z M 147.457031 80 "/>
</clipPath>
</defs>
<g id="surface1">
<path style=" stroke:none;fill-rule:nonzero;fill:rgb(100%,100%,100%);fill-opacity:1;" d="M 306.554688 334.191406 C 307.53125 334.355469 308.511719 334.5 309.488281 334.65625 C 310.527344 330.761719 311.738281 326.910156 312.960938 323.109375 C 313.121094 322.585938 312.390625 322.257812 312.089844 322.65625 C 316.144531 307.78125 322.179688 291.414062 332.757812 281.070312 C 333.332031 280.511719 332.492188 279.703125 331.898438 280.203125 C 317.285156 292.542969 310.628906 316.15625 306.410156 334.160156 L 306.554688 334.191406 "/>
<path style=" stroke:none;fill-rule:nonzero;fill:rgb(100%,100%,100%);fill-opacity:1;" d="M 296.105469 383.753906 C 295.785156 384.078125 294.792969 384.757812 294.890625 385.28125 L 295.035156 385.425781 C 295.558594 385.523438 296.234375 384.527344 296.550781 384.214844 C 296.84375 383.921875 296.382812 383.457031 296.105469 383.753906 "/>
<path style=" stroke:none;fill-rule:nonzero;fill:rgb(100%,100%,100%);fill-opacity:1;" d="M 293.128906 414.691406 C 284.976562 428.320312 271.070312 431.195312 255.886719 431.167969 C 247.980469 431.152344 220.804688 429.316406 222.128906 416.355469 C 222.164062 416.03125 221.617188 415.953125 221.5625 416.277344 C 219.140625 430.46875 243.140625 433.214844 252.351562 433.878906 C 264.1875 434.734375 294.453125 432.515625 294.671875 415.113281 C 294.6875 414.273438 293.546875 413.988281 293.128906 414.691406 "/>
<path style=" stroke:none;fill-rule:nonzero;fill:rgb(100%,100%,100%);fill-opacity:1;" d="M 304.84375 225.675781 C 304.757812 225.777344 304.683594 225.886719 304.601562 225.988281 L 304.59375 225.988281 L 304.539062 226.070312 C 302.535156 228.609375 300.6875 231.253906 298.921875 233.96875 C 296.789062 236.398438 294.394531 238.59375 291.683594 240.484375 C 280.792969 248.058594 280.019531 235.207031 281.253906 227.164062 C 281.53125 225.339844 279.183594 224.683594 278.5 226.40625 C 275.78125 233.257812 272.910156 240.453125 267.820312 245.910156 C 261.019531 253.199219 256.609375 241.164062 255.679688 237.003906 C 255.445312 235.957031 255.316406 234.886719 255.222656 233.808594 C 255.359375 231.105469 255.328125 228.613281 255.308594 226.777344 C 255.285156 224.8125 252.492188 224.878906 252.308594 226.777344 C 252.144531 228.550781 252.089844 230.921875 252.261719 233.476562 C 251.910156 241.242188 250.011719 250.039062 240.96875 247.902344 C 231.941406 245.777344 223.796875 237.722656 216.789062 232.164062 C 215.148438 230.851562 213.125 232.832031 214.480469 234.480469 C 239.121094 264.367188 248.667969 308.394531 249.660156 346.320312 C 249.707031 348.0625 252.351562 348.070312 252.367188 346.320312 C 252.726562 311.660156 243.246094 272.542969 224.113281 242.601562 C 230.257812 247.402344 237.167969 251.605469 244.304688 251.691406 C 249.820312 251.75 252.585938 247.601562 253.960938 242.484375 C 255.546875 247.035156 258.351562 250.640625 263.15625 250.683594 C 270.113281 250.742188 274.480469 243.621094 277.542969 236.574219 C 277.761719 241.425781 279.449219 245.742188 285.019531 246.207031 C 287.800781 246.4375 290.554688 245.457031 293.148438 243.808594 C 279.492188 269.996094 274.398438 301.738281 269.984375 330.027344 C 269.679688 331.984375 272.425781 332.851562 273.011719 330.859375 C 282.277344 299.375 283.457031 264.832031 301.023438 236.574219 C 303.648438 233.429688 305.820312 230.097656 307.300781 227.574219 C 308.179688 226.070312 305.972656 224.257812 304.84375 225.675781 "/>
<g clip-path="url(#clip1)" clip-rule="nonzero">
<path style=" stroke:none;fill-rule:nonzero;fill:rgb(100%,100%,100%);fill-opacity:1;" d="M 354.769531 251.8125 C 350.644531 259.308594 346.042969 266.617188 341.5 273.945312 C 350.714844 251.210938 358.382812 228.039062 359.15625 203.152344 C 359.414062 194.746094 358.894531 186.421875 357.824219 178.164062 C 361.109375 189.347656 363.390625 200.894531 363.722656 212.390625 C 363.402344 225.621094 360.566406 238.878906 354.769531 251.8125 Z M 334.335938 121.007812 C 332.976562 118.964844 331.632812 116.929688 330.179688 114.9375 C 325.878906 109.023438 320.929688 103.667969 315.460938 98.816406 C 312.609375 96.28125 309.59375 92.003906 305.914062 90.625 C 305.617188 90.515625 305.207031 90.746094 305.15625 91.0625 C 304.902344 92.476562 305.050781 92.113281 305.683594 94.015625 C 305.929688 94.742188 307.066406 94.441406 306.832031 93.707031 C 306.175781 91.621094 310.550781 96.988281 310.160156 96.550781 C 312.003906 98.65625 314.234375 100.378906 316.28125 102.277344 C 319.820312 105.550781 322.988281 109.230469 325.945312 113.054688 C 322.628906 110.378906 319.0625 107.941406 315.148438 105.839844 C 307.222656 101.609375 298.773438 99.105469 290.105469 97.96875 C 280.996094 94.257812 271.691406 91.339844 261.464844 91.210938 C 260.910156 91.195312 260.339844 91.269531 259.777344 91.28125 C 258.746094 91.179688 257.726562 91.140625 256.699219 91.078125 C 270.292969 87.238281 284.746094 86.132812 298.699219 88.207031 C 299.484375 88.574219 300.265625 88.933594 301.03125 89.332031 C 301.515625 89.589844 301.867188 89.128906 301.742188 88.726562 C 307.957031 89.867188 314.0625 91.589844 319.914062 94.097656 C 327.03125 97.148438 333.171875 101.210938 338.558594 106.019531 C 341.214844 117.019531 344.292969 127.808594 347.214844 138.574219 C 343.425781 132.265625 339.210938 126.320312 334.335938 121.007812 Z M 274.121094 97.328125 C 270.148438 96.863281 266.078125 96.628906 261.914062 96.671875 C 258.59375 96.710938 245.863281 96.820312 236.292969 98.9375 C 238.613281 97.808594 240.964844 96.746094 243.359375 95.761719 C 250.21875 93.867188 257.246094 92.734375 264.238281 92.773438 C 271.929688 92.816406 279.476562 94.875 286.851562 97.644531 C 282.640625 97.253906 278.390625 97.136719 274.121094 97.328125 Z M 225.089844 110.144531 C 217.324219 113.777344 209.796875 118.21875 202.6875 123.308594 C 209.386719 116.308594 216.992188 110.097656 225.324219 104.917969 C 225.035156 105.738281 225.019531 106.632812 225.328125 107.621094 C 225.425781 107.925781 225.886719 107.800781 225.800781 107.492188 C 223.734375 99.9375 249.53125 98.542969 262.945312 98.425781 C 249.734375 100.410156 236.761719 104.6875 225.089844 110.144531 Z M 195.75 128.617188 C 188.617188 134.4375 182.015625 140.9375 176.289062 148.105469 C 177.925781 144.15625 179.800781 140.277344 181.914062 136.5 C 191.195312 124.902344 203.230469 115.183594 216.148438 107.519531 C 218.085938 106.375 220.085938 105.273438 222.105469 104.214844 C 212.058594 110.929688 203.105469 119.183594 195.75 128.617188 Z M 172.46875 153.171875 C 172.875 151.519531 173.367188 149.886719 173.855469 148.261719 C 175.054688 146.140625 176.390625 144.097656 177.769531 142.070312 C 176.25 145.171875 174.828125 148.332031 173.59375 151.578125 C 173.207031 152.101562 172.859375 152.644531 172.46875 153.171875 Z M 162.675781 169.589844 C 162.507812 169.945312 162.355469 170.316406 162.1875 170.675781 C 165.722656 150.585938 173.769531 131.566406 188.105469 116.433594 C 196.019531 108.074219 205.367188 102.085938 215.484375 98.054688 C 208.585938 102.03125 202.003906 106.554688 195.941406 111.542969 C 186.074219 119.667969 179.476562 129.425781 175.171875 140.160156 C 169.808594 149.722656 165.691406 159.945312 162.675781 169.589844 Z M 171.441406 235.167969 C 162.890625 224.410156 160.015625 210.964844 160.4375 197.289062 C 160.902344 192.351562 161.941406 187.460938 163.382812 182.660156 C 163.632812 182.730469 163.929688 182.625 163.945312 182.265625 C 163.972656 181.589844 164.070312 180.9375 164.113281 180.273438 C 164.851562 178.058594 165.664062 175.855469 166.601562 173.707031 C 167.125 172.515625 167.71875 171.371094 168.277344 170.203125 C 165.679688 183.722656 165.476562 197.953125 168.113281 212.25 C 168.203125 212.71875 168.878906 212.511719 168.8125 212.054688 C 167.519531 202.828125 167.210938 193.589844 167.851562 184.496094 C 167.808594 201.644531 169.878906 219.121094 171.441406 235.167969 Z M 186.597656 123.457031 C 188.453125 121.125 190.46875 118.863281 192.710938 116.699219 C 198.832031 110.777344 206.246094 105.128906 214.4375 100.179688 C 210.457031 102.773438 206.640625 105.601562 203.09375 108.71875 C 196.917969 112.640625 191.441406 117.695312 186.597656 123.457031 Z M 229.007812 93.882812 C 234.800781 92.609375 240.753906 91.914062 246.742188 91.707031 C 243.046875 93.0625 239.417969 94.597656 235.882812 96.320312 C 228.652344 99.019531 221.683594 102.496094 215.324219 106.113281 C 205.839844 111.515625 196.207031 118.667969 187.8125 127.109375 C 187.945312 126.917969 188.070312 126.714844 188.207031 126.515625 C 191.347656 122.113281 194.84375 118.085938 198.59375 114.375 C 201.707031 111.589844 204.949219 108.964844 208.414062 106.703125 C 208.769531 106.476562 208.640625 106.046875 208.347656 105.914062 C 214.730469 101.105469 221.683594 97.109375 229.007812 93.882812 Z M 266.535156 83.5625 C 258.238281 83.882812 250.320312 85.183594 242.800781 87.296875 C 259.140625 82.171875 276.246094 80.730469 291.414062 85.398438 C 280.246094 84.492188 268.742188 85.464844 257.542969 88.335938 C 254.730469 89.054688 251.960938 89.886719 249.230469 90.816406 C 244.039062 90.804688 238.886719 91.140625 233.839844 91.925781 C 244.246094 87.894531 255.289062 85.316406 266.535156 84.234375 C 266.953125 84.199219 266.976562 83.546875 266.535156 83.5625 Z M 176.058594 258.121094 C 179.253906 268.667969 186.121094 278.054688 192.71875 286.671875 C 194.8125 292.117188 197.632812 297.3125 200.691406 302.382812 C 192.816406 294.902344 184.890625 289.359375 178.410156 280.214844 C 177.242188 278.582031 176.222656 276.847656 175.171875 275.148438 C 176.4375 276.011719 177.734375 276.835938 179.097656 277.601562 C 179.523438 277.839844 180.054688 277.214844 179.644531 276.894531 C 176.976562 274.816406 174.566406 272.527344 172.277344 270.132812 C 168.820312 263.722656 165.960938 256.988281 163.492188 250.15625 C 169.664062 258.886719 176.0625 267.445312 182.015625 276.332031 C 182.101562 276.453125 182.292969 276.347656 182.21875 276.21875 C 181.839844 275.632812 181.449219 275.066406 181.066406 274.480469 C 181.171875 274.609375 181.40625 274.550781 181.355469 274.367188 C 179.460938 267.988281 176.992188 261.851562 174.363281 255.792969 C 174.917969 256.570312 175.476562 257.347656 176.058594 258.121094 Z M 197.738281 284.058594 C 197.828125 284.207031 197.929688 284.363281 198.011719 284.511719 C 198.097656 284.652344 198.230469 284.65625 198.335938 284.617188 C 201.289062 287.371094 203.957031 290.164062 205.882812 293.140625 C 207.035156 294.933594 208.128906 296.757812 209.171875 298.601562 C 209.3125 300.527344 209.519531 302.453125 209.78125 304.367188 C 204.117188 296.703125 197.988281 289.371094 192.28125 281.769531 C 191.914062 280.632812 191.589844 279.476562 191.308594 278.320312 C 193.476562 280.25 195.667969 282.144531 197.738281 284.058594 Z M 212.355469 317.738281 C 211.777344 316.816406 211.199219 315.910156 210.632812 315.011719 C 205.652344 307.09375 200.042969 299.167969 195.910156 290.6875 C 200.710938 296.71875 205.679688 302.628906 210.441406 308.691406 C 210.96875 311.71875 211.621094 314.734375 212.355469 317.738281 Z M 216.644531 314.25 L 216.644531 314.332031 C 215.136719 311.914062 213.503906 309.574219 211.851562 307.246094 C 211.449219 305.390625 211.105469 303.535156 210.8125 301.664062 C 212.988281 305.769531 214.921875 309.972656 216.644531 314.25 Z M 217.691406 326.734375 C 217.492188 326.390625 217.308594 326.039062 217.121094 325.683594 C 215.605469 321.136719 214.164062 316.566406 212.96875 311.929688 C 214.316406 313.710938 215.578125 315.550781 216.863281 317.371094 C 217.089844 320.507812 217.367188 323.625 217.691406 326.734375 Z M 219.046875 320.410156 C 223.820312 334.128906 226.484375 348.535156 227.851562 363.050781 C 227.574219 362.910156 227.296875 362.753906 227.019531 362.609375 C 226.789062 360.609375 226.5 358.628906 226.15625 356.65625 C 226.355469 356.699219 226.550781 356.691406 226.761719 356.746094 C 226.964844 356.785156 227.046875 356.5 226.847656 356.433594 C 226.582031 356.347656 226.332031 356.308594 226.0625 356.238281 C 225.722656 354.398438 225.34375 352.570312 224.902344 350.757812 C 225.070312 344.332031 223.109375 337.945312 220.292969 331.871094 C 219.664062 327.78125 219.019531 323.703125 218.492188 319.644531 C 218.667969 319.902344 218.863281 320.148438 219.046875 320.410156 Z M 223.402344 360.457031 C 223.683594 359.140625 223.894531 357.792969 224.054688 356.421875 L 224.191406 356.410156 C 224.757812 358.257812 225.265625 360.101562 225.769531 361.929688 C 224.960938 361.476562 224.175781 360.988281 223.402344 360.457031 Z M 228.347656 369.039062 C 228.425781 370.265625 230.148438 370.265625 230.238281 369.039062 C 230.304688 367.972656 230.296875 366.949219 230.339844 365.894531 C 230.515625 365.925781 230.699219 365.957031 230.886719 365.996094 C 234.191406 366.988281 237.546875 367.636719 240.175781 368.1875 C 250.410156 370.324219 261.054688 371.050781 271.5 370.601562 C 271.910156 370.585938 271.910156 369.988281 271.5 369.96875 C 263.441406 369.519531 253.839844 369.339844 244.632812 367.882812 C 254.5 368.757812 264.464844 368.414062 273.664062 366.292969 C 272.953125 365.644531 272.335938 364.878906 271.8125 364.058594 C 274.046875 363.820312 276.257812 363.460938 278.339844 363.152344 C 284.164062 362.304688 291.210938 361.960938 296.585938 359.222656 C 297.941406 359.226562 299.289062 359.269531 300.601562 359.265625 C 304.980469 359.257812 303.386719 366.277344 302.550781 368.011719 C 302.148438 368.851562 301.621094 369.476562 301.019531 369.984375 C 300.261719 369.96875 299.5 369.960938 298.746094 369.960938 C 289.136719 375.195312 275.777344 375.503906 265.726562 375.140625 C 262.832031 375.039062 259.953125 374.84375 257.0625 374.617188 C 257.484375 374.105469 257.894531 373.601562 258.246094 373.011719 C 258.46875 372.632812 258 372.078125 257.609375 372.375 C 256.574219 373.152344 255.515625 373.800781 254.433594 374.390625 C 251.894531 374.164062 249.355469 373.921875 246.835938 373.625 C 246.144531 373.546875 230.527344 371.429688 232.0625 369.210938 C 232.28125 368.902344 231.769531 368.5 231.542969 368.804688 C 228.84375 372.257812 241.207031 374.871094 250.074219 376.25 C 247.738281 377.019531 245.34375 377.5 242.894531 377.726562 C 241.996094 377.523438 241.113281 377.355469 240.203125 377.140625 C 234.9375 375.882812 229.738281 374.273438 224.644531 372.449219 C 221.429688 371.289062 218.289062 369.953125 215.265625 368.367188 C 213.515625 367.457031 212.730469 366.539062 212.570312 365.664062 C 212.730469 365.347656 212.863281 365.105469 212.90625 365.007812 C 213.296875 364.25 213.75 363.550781 214.199219 362.847656 C 214.449219 362.660156 214.714844 362.492188 215.007812 362.324219 C 216.683594 362.789062 218.375 363.242188 220.136719 363.679688 C 219.664062 364.996094 219.183594 366.308594 218.890625 367.667969 C 218.832031 367.988281 219.121094 368.398438 219.492188 368.261719 C 219.722656 368.171875 219.914062 368.039062 220.121094 367.910156 C 220.101562 368.289062 220.105469 368.660156 220.078125 369.039062 C 220.03125 369.636719 220.976562 369.75 221.109375 369.183594 C 221.316406 368.238281 221.464844 367.296875 221.632812 366.351562 C 222.003906 365.71875 222.28125 364.996094 222.511719 364.25 C 224.324219 364.671875 226.175781 365.082031 228.054688 365.457031 C 228.148438 366.652344 228.257812 367.84375 228.347656 369.039062 Z M 304.019531 376.644531 C 304.265625 377.402344 304.496094 378.160156 304.800781 378.878906 C 304.277344 379.742188 303.265625 380.820312 301.738281 382.214844 C 297.980469 385.625 293.75 388.003906 289.136719 389.78125 C 289.664062 389.285156 290.15625 388.761719 290.601562 388.203125 C 290.980469 387.734375 290.652344 386.785156 289.941406 387.054688 C 284.085938 389.3125 278.652344 391.09375 273.164062 392.375 C 273.070312 392.238281 272.953125 392.132812 272.742188 392.144531 C 265.914062 392.585938 259.050781 392.851562 252.203125 393.03125 C 250.375 392.527344 248.582031 391.914062 246.863281 391.113281 C 246.410156 390.894531 246.0625 391.5 246.476562 391.792969 C 247.148438 392.273438 247.867188 392.699219 248.582031 393.109375 C 246.988281 393.140625 245.390625 393.210938 243.800781 393.222656 C 242.730469 393.222656 240.0625 393.242188 236.804688 393.128906 C 234.078125 392.699219 231.359375 392.214844 228.652344 391.660156 C 225.664062 391.054688 222.71875 390.25 219.792969 389.40625 C 218.980469 389.152344 218.171875 388.894531 217.367188 388.632812 C 217.207031 388.5 217.011719 388.394531 216.851562 388.261719 C 216.757812 388.039062 216.71875 387.796875 216.6875 387.550781 C 218.316406 387.765625 220.15625 388.042969 220.597656 388.039062 C 221.019531 388.039062 221.019531 387.402344 220.597656 387.398438 C 219.285156 387.414062 217.96875 387.371094 216.660156 387.296875 C 216.65625 386.394531 217.140625 385.355469 218.292969 384.160156 C 218.515625 383.929688 218.171875 383.589844 217.941406 383.808594 C 216.714844 384.980469 215.96875 386.019531 215.558594 386.96875 C 213.941406 385.148438 212.8125 383.0625 212.570312 380.734375 C 214.527344 378.863281 217.621094 377.886719 220.699219 377.960938 C 227.898438 379.878906 236.179688 381.324219 243.375 380.691406 C 247.460938 381.636719 251.5625 382.441406 255.679688 382.988281 C 266.582031 384.457031 282.097656 386.527344 291.675781 379.546875 C 292.246094 379.125 291.914062 378.238281 291.195312 378.394531 C 277.003906 381.488281 264.097656 381.484375 250.414062 379.195312 C 251.96875 378.613281 253.390625 377.855469 254.65625 376.917969 C 256.476562 377.15625 257.808594 377.3125 258.28125 377.355469 C 268.703125 378.441406 283.082031 379.238281 294.566406 375.382812 C 296.148438 375.53125 297.742188 375.601562 299.332031 375.636719 C 299.457031 375.898438 299.660156 376.113281 300.046875 376.121094 C 301.902344 376.191406 303.171875 376.363281 304.019531 376.644531 Z M 218.917969 394.617188 C 215.652344 394.164062 212.8125 392.523438 211.230469 388.675781 C 210.523438 386.953125 210.394531 385.429688 210.667969 384.097656 C 211.082031 385.054688 211.648438 385.980469 212.28125 386.863281 L 212.148438 386.851562 C 211.230469 386.71875 210.464844 388.011719 211.457031 388.492188 C 212.714844 389.09375 214 389.632812 215.285156 390.164062 C 215.617188 390.449219 215.941406 390.753906 216.28125 391.011719 C 216.953125 391.691406 217.910156 392.257812 219.007812 392.742188 C 219.574219 393.035156 220.160156 393.238281 220.742188 393.449219 C 220.058594 393.710938 219.445312 394.101562 218.917969 394.617188 Z M 224.148438 406.929688 C 220.785156 405.230469 218.027344 402.832031 218.324219 399.910156 C 218.625 400.625 218.988281 401.316406 219.355469 401.894531 C 220.535156 403.753906 222.21875 405.457031 224.148438 406.929688 Z M 210.039062 372.351562 C 209.503906 372.171875 210.667969 369.542969 211.664062 367.472656 C 214.4375 370.507812 220.859375 373.609375 225.667969 375.414062 C 227.59375 376.140625 229.5625 376.789062 231.53125 377.429688 C 229.0625 377.128906 226.597656 376.730469 224.175781 376.273438 C 220.6875 375.601562 217.269531 374.628906 213.882812 373.566406 C 213.648438 373.207031 213.222656 373.046875 212.800781 373.226562 C 211.878906 372.929688 210.949219 372.667969 210.039062 372.351562 Z M 218.980469 357.800781 L 219.007812 358.039062 C 219.34375 358.742188 219.808594 359.355469 220.292969 359.957031 C 220.296875 360.632812 220.296875 361.308594 220.304688 361.980469 C 219.3125 361.75 218.347656 361.5 217.371094 361.253906 C 218.074219 361.003906 218.785156 360.800781 219.449219 360.660156 C 219.898438 360.570312 219.695312 359.921875 219.265625 359.988281 C 217.84375 360.21875 216.683594 360.492188 215.625 360.777344 C 216.609375 359.574219 217.71875 358.554688 218.980469 357.800781 Z M 152.910156 234.289062 C 155.183594 238.019531 157.589844 241.667969 160.054688 245.269531 C 160.601562 247.171875 161.136719 249.082031 161.75 250.964844 C 163.136719 255.265625 164.832031 259.457031 166.671875 263.578125 C 160.246094 254.953125 155.734375 244.9375 152.910156 234.289062 Z M 239.347656 413.046875 C 252.132812 417.441406 269.28125 415.980469 280.65625 409.984375 C 285.53125 409.445312 290.164062 408.539062 294.21875 407.265625 C 294.527344 411.609375 283.425781 415.207031 275.492188 417.1875 C 275.355469 417.089844 275.167969 417.035156 274.953125 417.136719 C 274.628906 417.285156 274.292969 417.417969 273.96875 417.558594 C 271.285156 418.191406 269.128906 418.617188 268.214844 418.777344 C 256.273438 420.871094 239.945312 422.1875 229.429688 414.871094 C 229.164062 414.6875 228.878906 415.09375 229.097656 415.3125 C 236.453125 422.828125 248.761719 423.894531 260.347656 422.800781 C 257.296875 423.761719 254.214844 424.617188 251.023438 425.214844 C 245.59375 426.222656 239.71875 426.21875 234.632812 423.886719 C 231.898438 422.632812 230.464844 419.941406 228.835938 417.589844 C 226.523438 414.234375 228.917969 412.886719 231.546875 412.25 C 234.074219 412.777344 236.71875 413.066406 239.347656 413.046875 Z M 252.632812 409.28125 C 257.488281 410.121094 262.933594 410.570312 268.480469 410.601562 C 260.988281 412.507812 252.96875 413.324219 245.644531 412.316406 C 248.179688 411.71875 250.550781 410.703125 252.632812 409.28125 Z M 370.027344 203.433594 C 369.988281 202.851562 369.121094 202.84375 369.121094 203.433594 C 369.125 204.257812 369.070312 205.054688 369.054688 205.871094 C 368.507812 185.003906 361.246094 164.570312 351.578125 146.277344 C 351.460938 146.054688 351.332031 145.84375 351.210938 145.625 C 347.84375 132.792969 343.851562 120.089844 340.128906 107.464844 C 350.609375 117.382812 358.117188 130.191406 364.179688 143.914062 C 364.410156 144.441406 365.226562 144.058594 365.082031 143.535156 C 355.972656 110.175781 329.007812 90.917969 298.292969 86.21875 C 283.886719 77.515625 264.660156 80.046875 249.152344 84.097656 C 239.777344 86.542969 230.585938 90.128906 221.835938 94.597656 C 210.363281 98.039062 199.59375 103.855469 190.128906 112.421875 C 172.523438 128.355469 163.375 151.148438 160.511719 174.4375 C 159.921875 175.84375 159.34375 177.269531 158.832031 178.71875 C 158.570312 179.449219 158.378906 180.15625 158.136719 180.875 C 158.015625 180.710938 157.710938 180.6875 157.644531 180.945312 C 157.007812 183.386719 156.507812 185.808594 156.074219 188.207031 C 153.796875 198.199219 153.792969 207.460938 155.457031 216.203125 C 157.566406 231.34375 163.550781 245.796875 172.542969 259.621094 C 172.757812 259.953125 173.28125 259.644531 173.066406 259.3125 C 166.453125 249.136719 161.761719 238.9375 158.921875 228.453125 C 162.089844 236.84375 166.65625 244.792969 172.015625 252.511719 C 175.285156 259.667969 178.46875 266.859375 180.96875 274.339844 C 175.125 265.414062 168.789062 256.820312 162.726562 248.058594 C 155.246094 226.632812 151.867188 202.683594 155.324219 180.144531 C 155.371094 179.871094 154.949219 179.75 154.902344 180.027344 C 151.460938 201.03125 153.800781 222.917969 159.5 243.414062 C 157.035156 239.734375 154.625 236.011719 152.363281 232.199219 C 146.492188 207.882812 149.230469 180.515625 158.203125 158.691406 C 158.335938 158.367188 157.785156 158.140625 157.648438 158.453125 C 143.339844 190.511719 141.140625 246.164062 170.613281 271.609375 C 172.761719 275.625 175.066406 279.5625 177.652344 283.3125 C 183.011719 291.113281 191.195312 301.105469 200.554688 304.015625 C 200.96875 304.144531 201.296875 303.835938 201.371094 303.472656 C 202.144531 304.734375 202.917969 306 203.710938 307.246094 C 207.710938 313.558594 211.347656 319.566406 214.496094 325.738281 C 215.925781 330.660156 217.519531 335.546875 219.113281 340.421875 C 219.644531 345.625 220.03125 350.851562 220.203125 356.105469 C 217.703125 356.753906 215.644531 358.316406 213.898438 360.375 C 212.886719 360.121094 211.863281 359.886719 210.863281 359.621094 C 209.953125 359.375 209.578125 360.757812 210.476562 361.03125 C 211.246094 361.257812 212.054688 361.484375 212.847656 361.707031 L 212.753906 361.855469 C 210.644531 362.9375 210.039062 364.207031 210.492188 365.5625 C 209.300781 367.753906 208.25 370.070312 207.285156 372.25 C 206.988281 372.917969 207.230469 373.519531 207.910156 373.785156 C 208.878906 374.171875 209.960938 374.582031 211.148438 375.011719 C 210.046875 376.683594 209.648438 378.492188 209.742188 380.296875 C 207.886719 382.742188 207.632812 386.15625 208.382812 389.023438 C 209.703125 393.980469 213.476562 396.585938 217.75 397.289062 L 217.75 397.34375 C 214.273438 402.128906 218.160156 407.0625 224.203125 409.855469 C 225.824219 410.601562 227.632812 411.207031 229.515625 411.710938 C 227.753906 412.089844 226.261719 412.785156 226.117188 414.15625 C 225.558594 419.402344 230.773438 424.476562 235.082031 426.523438 C 244.878906 431.171875 260.234375 427.109375 270.480469 421.332031 C 273.164062 420.820312 275.710938 420.261719 278 419.703125 C 281.738281 418.785156 294.054688 414.828125 296.929688 409.625 C 297.273438 410.292969 297.617188 410.960938 297.96875 411.617188 C 298.792969 413.140625 299.515625 414.847656 301.183594 415.519531 C 301.445312 415.625 301.71875 415.359375 301.71875 415.113281 C 301.742188 413.5 300.734375 412.394531 299.898438 411.082031 C 299.125 409.863281 298.304688 408.644531 297.550781 407.398438 C 297.546875 406.988281 297.472656 406.570312 297.328125 406.15625 C 297.488281 406.085938 297.644531 406.015625 297.796875 405.953125 C 299.5 406.933594 300.644531 408.117188 301.019531 410.207031 C 301.070312 410.558594 301.550781 410.433594 301.585938 410.132812 C 301.824219 407.878906 300.714844 406.496094 299.070312 405.398438 C 307.59375 401.460938 311.566406 395.183594 305.484375 386.199219 C 305.128906 385.675781 304.394531 386.015625 304.496094 386.613281 C 305.824219 394.207031 304.953125 399.761719 297.589844 403.382812 C 297.070312 403.636719 296.527344 403.839844 295.988281 404.054688 L 295.695312 403.792969 L 295.675781 403.742188 C 295.589844 403.523438 295.425781 403.425781 295.242188 403.375 C 295.003906 403.164062 294.816406 402.949219 294.527344 402.734375 C 293.285156 401.796875 291.78125 403.828125 292.890625 404.871094 L 293.089844 405.082031 C 290.769531 405.761719 288.351562 406.230469 285.898438 406.515625 C 287.230469 405.417969 288.433594 404.25 289.40625 402.96875 C 289.785156 402.476562 289.054688 401.8125 288.570312 402.132812 C 285.894531 403.886719 282.714844 405.535156 279.238281 407.007812 C 277.707031 407.066406 276.199219 407.097656 274.726562 407.128906 C 261.867188 407.355469 249.273438 405.355469 236.847656 402.265625 C 236.453125 402.171875 236.164062 402.65625 236.453125 402.949219 C 238.871094 405.433594 243.535156 407.347656 249.375 408.644531 C 247.023438 409.417969 244.59375 409.902344 242.128906 410.097656 C 242.128906 409.871094 242 409.667969 241.703125 409.679688 C 239.269531 409.777344 236.773438 409.449219 234.335938 408.820312 C 230.492188 406.789062 227.167969 403.902344 224.6875 399.953125 C 224.390625 399.484375 223.75 399.894531 223.960938 400.382812 C 224.949219 402.65625 226.425781 404.609375 228.144531 406.347656 C 225.386719 404.792969 222.9375 402.734375 221.128906 400.175781 C 220.398438 399.152344 220.136719 398.273438 220.160156 397.515625 C 222.667969 397.492188 225.1875 396.820312 227.445312 395.625 C 227.605469 395.644531 227.765625 395.648438 227.921875 395.675781 C 228.175781 395.722656 228.476562 395.609375 228.539062 395.316406 L 228.570312 395.050781 L 228.582031 395.050781 C 229.339844 395.140625 230.054688 395.222656 230.667969 395.28125 C 231.855469 395.398438 233.089844 395.5 234.308594 395.59375 C 240.582031 396.730469 246.945312 397.382812 253.226562 397.691406 C 257.609375 397.902344 263.148438 397.957031 268.730469 397.359375 C 279.617188 396.976562 290.9375 393.355469 298.570312 388.414062 C 300.691406 387.039062 304.101562 384.832031 306.554688 382.222656 C 307.71875 384.054688 309.148438 385.675781 310.917969 386.996094 C 311.417969 387.375 312.058594 386.65625 311.753906 386.160156 C 310.433594 384.039062 309.402344 381.8125 308.558594 379.535156 C 309.125 378.507812 309.515625 377.449219 309.515625 376.375 C 309.515625 376.046875 309.402344 375.820312 309.332031 375.550781 C 309.558594 375.546875 309.765625 375.546875 309.984375 375.546875 C 310.828125 375.546875 311.375 374.863281 311.429688 374.089844 C 310.753906 374.03125 310.070312 373.929688 309.371094 373.683594 C 308.46875 373.414062 307.625 373.03125 306.742188 372.699219 L 306.566406 372.710938 L 306.554688 372.628906 C 305.839844 372.355469 305.105469 372.132812 304.40625 371.8125 C 304.054688 371.675781 303.75 371.484375 303.441406 371.3125 C 306.628906 367.683594 307.902344 361.691406 305.179688 358.054688 C 305.105469 348.199219 304.496094 338.378906 306.003906 328.59375 L 305.894531 328.558594 C 304.222656 338.234375 304.753906 347.902344 304.847656 357.664062 C 304.6875 357.484375 304.566406 357.269531 304.382812 357.105469 C 301.808594 354.769531 295.355469 356.171875 292.351562 356.382812 C 286.230469 356.804688 280.332031 359.242188 274.355469 360.710938 C 273.386719 360.816406 272.410156 360.933594 271.433594 361.050781 C 270.828125 361.230469 270.21875 361.417969 269.578125 361.546875 C 263.15625 362.847656 256.816406 361.40625 250.394531 360.945312 C 248.773438 360.828125 247.382812 360.367188 246.203125 359.683594 C 243.882812 359.5 241.558594 359.289062 239.222656 359.078125 C 238.425781 359.003906 237.695312 358.847656 237.011719 358.628906 C 236.554688 358.597656 236.089844 358.597656 235.625 358.554688 C 235.851562 358.46875 236.074219 358.410156 236.292969 358.332031 C 235.542969 358.015625 234.859375 357.636719 234.25 357.179688 C 233.316406 357.402344 232.382812 357.585938 231.441406 357.855469 C 230.207031 358.214844 230.246094 359.9375 231.441406 360.308594 C 242.492188 363.765625 254.25 365.007812 265.863281 364.949219 C 263.34375 365.355469 260.761719 365.679688 258.054688 365.855469 C 248.84375 366.464844 239.550781 365.625 230.398438 364.03125 C 231.054688 341.542969 225.792969 321.167969 216.414062 300.4375 C 212.234375 291.207031 206.949219 284.339844 199.585938 277.519531 C 194.8125 273.097656 190.027344 268.828125 185.9375 264 C 185.167969 262.886719 184.410156 261.765625 183.652344 260.652344 L 183.691406 260.574219 C 183.339844 260.117188 183.003906 259.648438 182.652344 259.1875 C 181.59375 257.636719 180.550781 256.089844 179.515625 254.542969 C 179.050781 253.609375 178.574219 252.699219 178.171875 251.710938 C 177.984375 251.230469 177.605469 251.082031 177.222656 251.078125 C 172.558594 243.929688 168.332031 236.597656 165.222656 228.746094 C 166.988281 231.8125 169.136719 234.691406 171.648438 237.382812 C 171.785156 238.9375 171.9375 240.5 172.070312 242.03125 C 172.085938 242.179688 172.308594 242.1875 172.304688 242.03125 C 172.234375 240.65625 172.164062 239.265625 172.085938 237.863281 C 173.171875 238.992188 174.316406 240.089844 175.5625 241.140625 C 176.039062 241.546875 176.730469 240.875 176.261719 240.4375 C 174.6875 238.992188 173.269531 237.472656 171.960938 235.898438 C 170.644531 214.996094 167.742188 191.910156 169.707031 170.238281 C 170.003906 168.691406 170.308594 167.148438 170.667969 165.621094 C 174.511719 158.699219 179.214844 152.261719 184.558594 146.324219 C 178.164062 159.179688 174.496094 173.429688 174.421875 188.492188 C 174.421875 188.8125 174.910156 188.8125 174.917969 188.492188 C 175.179688 171.753906 179.996094 156.324219 187.941406 142.757812 C 204.078125 126.265625 225.222656 114.140625 246.5 107.53125 C 262.042969 102.699219 278.703125 101.179688 294.710938 104.324219 C 306.320312 109.605469 316.160156 118.164062 324.609375 129.007812 C 324.878906 129.367188 325.449219 128.894531 325.222656 128.527344 C 319.003906 118.726562 311.207031 111.402344 302.246094 106.257812 C 318.535156 111.445312 330.742188 122.710938 340.132812 137.125 C 342.425781 140.644531 344.535156 144.265625 346.539062 147.898438 C 347.472656 149.972656 348.394531 152.039062 349.257812 154.128906 C 350.847656 157.960938 352.378906 161.910156 353.824219 165.914062 C 356.015625 176.929688 357.503906 188.113281 357.617188 199.703125 C 357.886719 229.8125 345.925781 255.152344 336.292969 282.46875 C 333.183594 287.675781 330.21875 292.917969 327.589844 298.277344 C 324.40625 303.71875 321.441406 309.253906 318.851562 314.90625 C 318.875 314.476562 318.949219 314.058594 318.964844 313.636719 C 318.992188 313.035156 318.433594 312.714844 317.921875 312.773438 C 318.019531 312.453125 318.121094 312.132812 318.222656 311.808594 C 318.289062 311.589844 317.957031 311.503906 317.882812 311.71875 C 317.726562 312.148438 317.585938 312.585938 317.429688 313.019531 L 317.265625 313.167969 C 314.550781 318.214844 313.152344 323.609375 312.117188 329.113281 C 310.46875 334.480469 308.945312 339.882812 307.5625 345.3125 C 307.476562 345.644531 307.980469 345.78125 308.0625 345.449219 C 309.023438 341.679688 310.105469 337.945312 311.226562 334.222656 C 310.828125 336.683594 310.453125 339.148438 310.011719 341.59375 C 309.503906 343.046875 309.023438 344.5 308.558594 345.960938 C 308.464844 346.003906 308.378906 346.078125 308.339844 346.214844 C 307.910156 348.070312 307.265625 349.792969 306.894531 351.664062 C 306.667969 352.851562 308.425781 353.367188 308.71875 352.171875 C 309.023438 350.917969 309.386719 349.667969 309.75 348.425781 C 310.601562 346.332031 311.269531 344.164062 311.800781 341.945312 C 312.542969 339.761719 313.308594 337.574219 314.046875 335.375 C 314.585938 335.472656 315.125 335.546875 315.664062 335.644531 C 316.308594 333.011719 317.023438 330.394531 317.878906 327.824219 C 317.488281 330.480469 317.285156 333.195312 317.164062 335.953125 C 317.503906 336.03125 317.851562 336.113281 318.1875 336.199219 C 319.179688 328.140625 321.152344 320.507812 323.871094 313.171875 C 328.585938 303.332031 334.375 293.867188 340.246094 284.617188 C 351.558594 266.800781 361.9375 249.957031 366.59375 229.941406 C 369.15625 221.425781 370.550781 212.59375 370.027344 203.433594 "/>
</g>
</g>
</svg>
