<?xml version="1.0" encoding="UTF-8"?>
<svg xmlns="http://www.w3.org/2000/svg" xmlns:xlink="http://www.w3.org/1999/xlink" width="144px" height="144px" viewBox="0 0 144 144" version="1.1">
<defs>
<clipPath id="clip1">
  <path d="M 41.472656 22.273438 L 104.195312 22.273438 L 104.195312 120.574219 L 41.472656 120.574219 Z M 41.472656 22.273438 "/>
</clipPath>
</defs>
<g id="surface1">
<path style=" stroke:none;fill-rule:nonzero;fill:rgb(100%,100%,100%);fill-opacity:1;" d="M 86.21875 93.992188 C 86.492188 94.039062 86.769531 94.078125 87.042969 94.121094 C 87.335938 93.027344 87.675781 91.945312 88.019531 90.875 C 88.066406 90.726562 87.859375 90.632812 87.777344 90.746094 C 88.914062 86.5625 90.613281 81.960938 93.589844 79.050781 C 93.75 78.894531 93.511719 78.664062 93.347656 78.808594 C 89.238281 82.277344 87.363281 88.917969 86.179688 93.984375 L 86.21875 93.992188 "/>
<path style=" stroke:none;fill-rule:nonzero;fill:rgb(100%,100%,100%);fill-opacity:1;" d="M 83.28125 107.929688 C 83.191406 108.023438 82.910156 108.214844 82.9375 108.359375 L 82.976562 108.402344 C 83.125 108.429688 83.316406 108.148438 83.40625 108.058594 C 83.488281 107.976562 83.359375 107.847656 83.28125 107.929688 "/>
<path style=" stroke:none;fill-rule:nonzero;fill:rgb(100%,100%,100%);fill-opacity:1;" d="M 82.441406 116.632812 C 80.148438 120.464844 76.238281 121.273438 71.96875 121.265625 C 69.742188 121.261719 62.101562 120.746094 62.472656 117.101562 C 62.484375 117.007812 62.328125 116.988281 62.316406 117.078125 C 61.632812 121.070312 68.382812 121.84375 70.972656 122.027344 C 74.300781 122.269531 82.816406 121.644531 82.875 116.75 C 82.882812 116.515625 82.558594 116.433594 82.441406 116.632812 "/>
<path style=" stroke:none;fill-rule:nonzero;fill:rgb(100%,100%,100%);fill-opacity:1;" d="M 85.738281 63.472656 C 85.714844 63.5 85.691406 63.53125 85.667969 63.558594 L 85.652344 63.582031 C 85.085938 64.296875 84.570312 65.039062 84.070312 65.804688 C 83.472656 66.488281 82.796875 67.105469 82.035156 67.636719 C 78.972656 69.765625 78.757812 66.152344 79.101562 63.890625 C 79.179688 63.375 78.519531 63.191406 78.328125 63.675781 C 77.5625 65.605469 76.757812 67.628906 75.324219 69.160156 C 73.410156 71.210938 72.171875 67.828125 71.910156 66.65625 C 71.84375 66.363281 71.808594 66.0625 71.78125 65.757812 C 71.820312 64.996094 71.8125 64.296875 71.804688 63.78125 C 71.800781 63.226562 71.011719 63.246094 70.960938 63.78125 C 70.914062 64.28125 70.902344 64.945312 70.949219 65.664062 C 70.847656 67.847656 70.316406 70.324219 67.773438 69.722656 C 65.234375 69.125 62.941406 66.859375 60.972656 65.296875 C 60.511719 64.925781 59.941406 65.484375 60.324219 65.949219 C 67.253906 74.351562 69.9375 86.734375 70.214844 97.402344 C 70.230469 97.894531 70.972656 97.894531 70.976562 97.402344 C 71.078125 87.652344 68.414062 76.652344 63.03125 68.230469 C 64.757812 69.582031 66.703125 70.765625 68.710938 70.789062 C 70.261719 70.804688 71.039062 69.636719 71.425781 68.199219 C 71.871094 69.476562 72.660156 70.492188 74.011719 70.503906 C 75.96875 70.519531 77.199219 68.519531 78.058594 66.535156 C 78.121094 67.902344 78.59375 69.117188 80.160156 69.246094 C 80.945312 69.308594 81.71875 69.035156 82.449219 68.570312 C 78.609375 75.9375 77.175781 84.863281 75.933594 92.820312 C 75.847656 93.371094 76.621094 93.613281 76.785156 93.054688 C 79.390625 84.199219 79.722656 74.484375 84.664062 66.535156 C 85.402344 65.652344 86.011719 64.714844 86.429688 64.003906 C 86.675781 63.582031 86.054688 63.070312 85.738281 63.472656 "/>
<g clip-path="url(#clip1)" clip-rule="nonzero">
<path style=" stroke:none;fill-rule:nonzero;fill:rgb(100%,100%,100%);fill-opacity:1;" d="M 99.777344 70.824219 C 98.617188 72.929688 97.324219 74.988281 96.046875 77.046875 C 98.636719 70.652344 100.796875 64.136719 101.011719 57.136719 C 101.085938 54.773438 100.941406 52.429688 100.636719 50.109375 C 101.5625 53.253906 102.203125 56.503906 102.296875 59.734375 C 102.207031 63.457031 101.410156 67.183594 99.777344 70.824219 Z M 94.03125 34.035156 C 93.648438 33.460938 93.273438 32.886719 92.863281 32.328125 C 91.652344 30.664062 90.261719 29.15625 88.722656 27.792969 C 87.921875 27.078125 87.074219 25.875 86.039062 25.488281 C 85.953125 25.457031 85.839844 25.523438 85.824219 25.609375 C 85.753906 26.007812 85.796875 25.90625 85.972656 26.441406 C 86.042969 26.644531 86.363281 26.5625 86.296875 26.355469 C 86.113281 25.769531 87.34375 27.277344 87.234375 27.15625 C 87.75 27.746094 88.378906 28.230469 88.953125 28.765625 C 89.949219 29.6875 90.839844 30.722656 91.671875 31.796875 C 90.738281 31.042969 89.734375 30.359375 88.636719 29.765625 C 86.40625 28.578125 84.03125 27.871094 81.59375 27.554688 C 79.03125 26.507812 76.414062 25.6875 73.539062 25.652344 C 73.382812 25.648438 73.222656 25.667969 73.0625 25.671875 C 72.773438 25.644531 72.484375 25.632812 72.195312 25.617188 C 76.019531 24.535156 80.085938 24.226562 84.007812 24.808594 C 84.230469 24.910156 84.449219 25.011719 84.664062 25.125 C 84.800781 25.195312 84.898438 25.066406 84.867188 24.953125 C 86.613281 25.273438 88.332031 25.757812 89.976562 26.464844 C 91.976562 27.324219 93.703125 28.464844 95.21875 29.820312 C 95.96875 32.910156 96.832031 35.945312 97.65625 38.972656 C 96.589844 37.199219 95.402344 35.527344 94.03125 34.035156 Z M 77.097656 27.375 C 75.980469 27.242188 74.835938 27.175781 73.664062 27.1875 C 72.730469 27.199219 69.148438 27.230469 66.457031 27.828125 C 67.109375 27.507812 67.773438 27.210938 68.445312 26.933594 C 70.375 26.398438 72.351562 26.082031 74.316406 26.09375 C 76.480469 26.105469 78.601562 26.683594 80.675781 27.460938 C 79.492188 27.351562 78.296875 27.320312 77.097656 27.375 Z M 63.304688 30.976562 C 61.121094 32 59.003906 33.25 57.007812 34.679688 C 58.890625 32.710938 61.027344 30.964844 63.371094 29.507812 C 63.289062 29.738281 63.285156 29.992188 63.375 30.269531 C 63.402344 30.355469 63.53125 30.320312 63.507812 30.234375 C 62.925781 28.105469 70.179688 27.714844 73.953125 27.683594 C 70.238281 28.242188 66.589844 29.445312 63.304688 30.976562 Z M 55.054688 36.175781 C 53.050781 37.808594 51.191406 39.640625 49.582031 41.65625 C 50.042969 40.542969 50.570312 39.453125 51.164062 38.390625 C 53.773438 35.128906 57.160156 32.394531 60.792969 30.238281 C 61.335938 29.917969 61.898438 29.609375 62.46875 29.308594 C 59.640625 31.199219 57.121094 33.519531 55.054688 36.175781 Z M 48.507812 43.078125 C 48.621094 42.613281 48.757812 42.15625 48.898438 41.699219 C 49.234375 41.101562 49.609375 40.527344 49.996094 39.957031 C 49.570312 40.828125 49.171875 41.71875 48.824219 42.632812 C 48.714844 42.777344 48.617188 42.929688 48.507812 43.078125 Z M 45.753906 47.695312 C 45.703125 47.796875 45.664062 47.902344 45.613281 48.003906 C 46.609375 42.351562 48.871094 37.003906 52.90625 32.746094 C 55.132812 30.394531 57.757812 28.710938 60.605469 27.578125 C 58.664062 28.695312 56.8125 29.96875 55.109375 31.371094 C 52.332031 33.65625 50.476562 36.402344 49.265625 39.421875 C 47.757812 42.109375 46.601562 44.984375 45.753906 47.695312 Z M 48.21875 66.140625 C 45.8125 63.117188 45.003906 59.335938 45.121094 55.488281 C 45.253906 54.097656 45.546875 52.722656 45.949219 51.375 C 46.023438 51.394531 46.105469 51.363281 46.109375 51.261719 C 46.117188 51.070312 46.144531 50.890625 46.15625 50.703125 C 46.363281 50.078125 46.59375 49.460938 46.855469 48.855469 C 47.003906 48.519531 47.171875 48.199219 47.328125 47.871094 C 46.597656 51.671875 46.539062 55.675781 47.28125 59.695312 C 47.308594 59.828125 47.496094 59.769531 47.476562 59.640625 C 47.113281 57.046875 47.027344 54.445312 47.207031 51.890625 C 47.195312 56.710938 47.777344 61.628906 48.21875 66.140625 Z M 52.480469 34.722656 C 53.003906 34.066406 53.570312 33.429688 54.199219 32.820312 C 55.921875 31.15625 58.007812 29.566406 60.308594 28.175781 C 59.191406 28.90625 58.117188 29.699219 57.121094 30.578125 C 55.382812 31.679688 53.84375 33.101562 52.480469 34.722656 Z M 64.410156 26.40625 C 66.039062 26.046875 67.710938 25.851562 69.394531 25.792969 C 68.355469 26.171875 67.335938 26.605469 66.34375 27.089844 C 64.308594 27.847656 62.347656 28.828125 60.558594 29.84375 C 57.890625 31.363281 55.183594 33.375 52.824219 35.75 C 52.859375 35.695312 52.894531 35.636719 52.933594 35.582031 C 53.816406 34.34375 54.800781 33.210938 55.855469 32.167969 C 56.730469 31.382812 57.640625 30.648438 58.617188 30.011719 C 58.714844 29.945312 58.679688 29.824219 58.597656 29.789062 C 60.394531 28.433594 62.347656 27.3125 64.410156 26.40625 Z M 74.960938 23.503906 C 72.628906 23.59375 70.402344 23.957031 68.289062 24.550781 C 72.882812 23.109375 77.695312 22.707031 81.960938 24.019531 C 78.820312 23.761719 75.582031 24.039062 72.433594 24.84375 C 71.644531 25.046875 70.863281 25.28125 70.097656 25.542969 C 68.636719 25.539062 67.1875 25.632812 65.765625 25.855469 C 68.695312 24.71875 71.800781 23.996094 74.960938 23.691406 C 75.082031 23.679688 75.085938 23.496094 74.960938 23.503906 Z M 49.515625 72.597656 C 50.414062 75.5625 52.347656 78.203125 54.203125 80.625 C 54.789062 82.15625 55.585938 83.617188 56.445312 85.046875 C 54.230469 82.941406 52 81.382812 50.179688 78.808594 C 49.847656 78.351562 49.5625 77.863281 49.265625 77.386719 C 49.621094 77.628906 49.988281 77.859375 50.371094 78.074219 C 50.492188 78.140625 50.640625 77.96875 50.523438 77.878906 C 49.773438 77.292969 49.097656 76.648438 48.453125 75.976562 C 47.480469 74.171875 46.675781 72.277344 45.984375 70.355469 C 47.71875 72.8125 49.519531 75.21875 51.191406 77.71875 C 51.214844 77.753906 51.269531 77.722656 51.25 77.6875 C 51.140625 77.523438 51.03125 77.363281 50.925781 77.199219 C 50.953125 77.234375 51.019531 77.21875 51.007812 77.164062 C 50.472656 75.371094 49.777344 73.644531 49.039062 71.941406 C 49.195312 72.160156 49.351562 72.378906 49.515625 72.597656 Z M 55.613281 79.890625 C 55.640625 79.933594 55.667969 79.976562 55.691406 80.019531 C 55.714844 80.058594 55.753906 80.058594 55.78125 80.050781 C 56.613281 80.824219 57.363281 81.609375 57.90625 82.445312 C 58.226562 82.949219 58.535156 83.464844 58.828125 83.980469 C 58.867188 84.523438 58.925781 85.066406 59 85.601562 C 57.40625 83.449219 55.683594 81.386719 54.078125 79.246094 C 53.976562 78.929688 53.882812 78.601562 53.804688 78.277344 C 54.414062 78.820312 55.03125 79.351562 55.613281 79.890625 Z M 59.726562 89.363281 C 59.5625 89.105469 59.398438 88.847656 59.242188 88.597656 C 57.839844 86.371094 56.261719 84.140625 55.097656 81.757812 C 56.449219 83.453125 57.847656 85.113281 59.1875 86.820312 C 59.335938 87.671875 59.519531 88.519531 59.726562 89.363281 Z M 60.929688 88.382812 L 60.929688 88.40625 C 60.507812 87.726562 60.046875 87.066406 59.582031 86.414062 C 59.46875 85.890625 59.371094 85.371094 59.289062 84.84375 C 59.902344 85.996094 60.445312 87.179688 60.929688 88.382812 Z M 61.226562 91.894531 C 61.171875 91.796875 61.117188 91.699219 61.066406 91.597656 C 60.640625 90.320312 60.234375 89.035156 59.898438 87.730469 C 60.277344 88.230469 60.632812 88.75 60.992188 89.261719 C 61.054688 90.140625 61.132812 91.019531 61.226562 91.894531 Z M 61.605469 90.117188 C 62.949219 93.972656 63.699219 98.023438 64.082031 102.109375 C 64.003906 102.070312 63.925781 102.023438 63.847656 101.984375 C 63.785156 101.421875 63.703125 100.863281 63.605469 100.308594 C 63.664062 100.320312 63.71875 100.320312 63.777344 100.335938 C 63.835938 100.34375 63.855469 100.265625 63.800781 100.246094 C 63.726562 100.222656 63.65625 100.210938 63.582031 100.191406 C 63.484375 99.675781 63.378906 99.160156 63.253906 98.652344 C 63.300781 96.84375 62.75 95.046875 61.957031 93.339844 C 61.78125 92.1875 61.597656 91.039062 61.449219 89.898438 C 61.5 89.972656 61.554688 90.042969 61.605469 90.117188 Z M 62.832031 101.378906 C 62.910156 101.007812 62.96875 100.628906 63.015625 100.242188 L 63.054688 100.242188 C 63.214844 100.757812 63.355469 101.277344 63.496094 101.792969 C 63.269531 101.664062 63.050781 101.527344 62.832031 101.378906 Z M 64.222656 103.792969 C 64.246094 104.136719 64.730469 104.136719 64.753906 103.792969 C 64.773438 103.492188 64.773438 103.203125 64.785156 102.90625 C 64.832031 102.917969 64.882812 102.925781 64.9375 102.9375 C 65.867188 103.214844 66.808594 103.398438 67.550781 103.550781 C 70.429688 104.152344 73.421875 104.359375 76.359375 104.230469 C 76.472656 104.226562 76.472656 104.058594 76.359375 104.054688 C 74.09375 103.925781 71.390625 103.875 68.804688 103.46875 C 71.578125 103.714844 74.378906 103.617188 76.96875 103.019531 C 76.769531 102.835938 76.59375 102.621094 76.449219 102.390625 C 77.074219 102.324219 77.695312 102.222656 78.285156 102.136719 C 79.921875 101.898438 81.902344 101.800781 83.414062 101.03125 C 83.796875 101.03125 84.175781 101.042969 84.542969 101.042969 C 85.777344 101.042969 85.328125 103.015625 85.09375 103.503906 C 84.980469 103.738281 84.832031 103.914062 84.660156 104.058594 C 84.449219 104.054688 84.234375 104.050781 84.023438 104.050781 C 81.320312 105.523438 77.5625 105.609375 74.734375 105.507812 C 73.921875 105.480469 73.113281 105.425781 72.296875 105.363281 C 72.417969 105.21875 72.53125 105.074219 72.632812 104.910156 C 72.695312 104.804688 72.5625 104.648438 72.453125 104.730469 C 72.160156 104.949219 71.863281 105.132812 71.558594 105.296875 C 70.84375 105.234375 70.132812 105.164062 69.421875 105.082031 C 69.226562 105.058594 64.835938 104.464844 65.269531 103.839844 C 65.328125 103.753906 65.183594 103.640625 65.121094 103.726562 C 64.363281 104.695312 67.839844 105.433594 70.332031 105.820312 C 69.675781 106.035156 69.003906 106.171875 68.316406 106.234375 C 68.0625 106.179688 67.8125 106.132812 67.558594 106.070312 C 66.078125 105.71875 64.613281 105.265625 63.179688 104.75 C 62.277344 104.425781 61.394531 104.050781 60.542969 103.601562 C 60.050781 103.347656 59.832031 103.089844 59.785156 102.84375 C 59.832031 102.753906 59.867188 102.683594 59.878906 102.660156 C 59.988281 102.445312 60.117188 102.25 60.242188 102.050781 C 60.3125 102 60.386719 101.949219 60.472656 101.902344 C 60.941406 102.035156 61.417969 102.160156 61.914062 102.285156 C 61.78125 102.65625 61.644531 103.023438 61.5625 103.40625 C 61.546875 103.496094 61.628906 103.613281 61.734375 103.574219 C 61.796875 103.546875 61.851562 103.511719 61.910156 103.472656 C 61.902344 103.582031 61.90625 103.6875 61.898438 103.792969 C 61.882812 103.960938 62.148438 103.992188 62.1875 103.832031 C 62.246094 103.566406 62.289062 103.300781 62.335938 103.035156 C 62.4375 102.859375 62.515625 102.65625 62.582031 102.445312 C 63.089844 102.5625 63.613281 102.679688 64.140625 102.785156 C 64.167969 103.121094 64.195312 103.457031 64.222656 103.792969 Z M 85.507812 105.929688 C 85.574219 106.144531 85.640625 106.359375 85.726562 106.558594 C 85.578125 106.804688 85.292969 107.105469 84.863281 107.496094 C 83.804688 108.457031 82.617188 109.125 81.320312 109.625 C 81.46875 109.488281 81.605469 109.339844 81.730469 109.183594 C 81.839844 109.050781 81.746094 108.78125 81.546875 108.859375 C 79.898438 109.492188 78.371094 109.996094 76.828125 110.355469 C 76.800781 110.316406 76.769531 110.289062 76.707031 110.289062 C 74.789062 110.414062 72.859375 110.488281 70.933594 110.539062 C 70.417969 110.398438 69.914062 110.226562 69.429688 110 C 69.304688 109.941406 69.207031 110.109375 69.320312 110.191406 C 69.511719 110.328125 69.710938 110.445312 69.914062 110.5625 C 69.464844 110.570312 69.015625 110.589844 68.570312 110.59375 C 68.269531 110.59375 67.519531 110.597656 66.601562 110.566406 C 65.835938 110.445312 65.070312 110.308594 64.308594 110.152344 C 63.46875 109.984375 62.640625 109.757812 61.816406 109.519531 C 61.589844 109.449219 61.359375 109.378906 61.132812 109.304688 C 61.089844 109.265625 61.035156 109.234375 60.988281 109.199219 C 60.964844 109.136719 60.953125 109.066406 60.945312 109 C 61.402344 109.058594 61.917969 109.136719 62.042969 109.136719 C 62.160156 109.136719 62.160156 108.957031 62.042969 108.957031 C 61.675781 108.960938 61.304688 108.949219 60.9375 108.925781 C 60.933594 108.671875 61.070312 108.382812 61.394531 108.046875 C 61.457031 107.980469 61.359375 107.882812 61.296875 107.945312 C 60.949219 108.277344 60.742188 108.570312 60.625 108.835938 C 60.171875 108.324219 59.851562 107.734375 59.785156 107.082031 C 60.335938 106.554688 61.207031 106.28125 62.070312 106.300781 C 64.097656 106.839844 66.425781 107.246094 68.449219 107.070312 C 69.597656 107.335938 70.753906 107.5625 71.910156 107.714844 C 74.976562 108.128906 79.339844 108.710938 82.035156 106.746094 C 82.195312 106.628906 82.101562 106.378906 81.898438 106.421875 C 77.90625 107.292969 74.277344 107.292969 70.429688 106.648438 C 70.867188 106.484375 71.265625 106.273438 71.621094 106.007812 C 72.132812 106.074219 72.507812 106.117188 72.640625 106.132812 C 75.574219 106.4375 79.617188 106.660156 82.847656 105.574219 C 83.292969 105.617188 83.742188 105.636719 84.1875 105.648438 C 84.222656 105.722656 84.277344 105.78125 84.386719 105.785156 C 84.910156 105.804688 85.265625 105.851562 85.507812 105.929688 Z M 61.570312 110.988281 C 60.652344 110.859375 59.851562 110.398438 59.410156 109.316406 C 59.210938 108.832031 59.171875 108.402344 59.25 108.027344 C 59.367188 108.296875 59.527344 108.554688 59.703125 108.804688 L 59.667969 108.800781 C 59.410156 108.765625 59.191406 109.128906 59.472656 109.261719 C 59.824219 109.433594 60.1875 109.585938 60.550781 109.734375 C 60.640625 109.8125 60.734375 109.898438 60.828125 109.972656 C 61.019531 110.164062 61.285156 110.320312 61.597656 110.457031 C 61.753906 110.539062 61.921875 110.597656 62.082031 110.65625 C 61.890625 110.730469 61.71875 110.839844 61.570312 110.988281 Z M 63.042969 114.449219 C 62.09375 113.972656 61.320312 113.296875 61.402344 112.472656 C 61.488281 112.675781 61.589844 112.871094 61.695312 113.03125 C 62.023438 113.554688 62.5 114.035156 63.042969 114.449219 Z M 59.074219 104.722656 C 58.921875 104.671875 59.25 103.933594 59.53125 103.351562 C 60.308594 104.203125 62.117188 105.078125 63.46875 105.585938 C 64.011719 105.789062 64.566406 105.972656 65.117188 106.152344 C 64.421875 106.066406 63.730469 105.957031 63.050781 105.828125 C 62.070312 105.636719 61.105469 105.363281 60.15625 105.066406 C 60.089844 104.964844 59.96875 104.917969 59.851562 104.96875 C 59.589844 104.886719 59.328125 104.8125 59.074219 104.722656 Z M 61.589844 100.632812 L 61.597656 100.699219 C 61.691406 100.894531 61.820312 101.070312 61.957031 101.238281 C 61.960938 101.429688 61.960938 101.617188 61.960938 101.804688 C 61.679688 101.742188 61.410156 101.671875 61.136719 101.601562 C 61.332031 101.53125 61.53125 101.476562 61.71875 101.4375 C 61.847656 101.410156 61.789062 101.226562 61.667969 101.246094 C 61.269531 101.3125 60.941406 101.386719 60.644531 101.46875 C 60.921875 101.128906 61.234375 100.84375 61.589844 100.632812 Z M 43.007812 65.894531 C 43.644531 66.945312 44.320312 67.96875 45.015625 68.980469 C 45.167969 69.515625 45.320312 70.054688 45.492188 70.585938 C 45.882812 71.792969 46.359375 72.972656 46.875 74.132812 C 45.070312 71.707031 43.800781 68.890625 43.007812 65.894531 Z M 67.316406 116.167969 C 70.914062 117.40625 75.734375 116.992188 78.933594 115.308594 C 80.304688 115.15625 81.609375 114.902344 82.75 114.542969 C 82.835938 115.765625 79.714844 116.777344 77.484375 117.335938 C 77.445312 117.304688 77.390625 117.289062 77.332031 117.320312 C 77.238281 117.363281 77.144531 117.398438 77.054688 117.4375 C 76.300781 117.617188 75.691406 117.738281 75.433594 117.78125 C 72.078125 118.371094 67.484375 118.738281 64.527344 116.683594 C 64.453125 116.632812 64.371094 116.746094 64.433594 116.804688 C 66.503906 118.921875 69.964844 119.21875 73.222656 118.914062 C 72.363281 119.183594 71.496094 119.425781 70.601562 119.59375 C 69.074219 119.875 67.421875 119.875 65.992188 119.21875 C 65.222656 118.867188 64.816406 118.109375 64.359375 117.445312 C 63.710938 116.503906 64.382812 116.125 65.121094 115.945312 C 65.832031 116.09375 66.578125 116.175781 67.316406 116.167969 Z M 71.054688 115.109375 C 72.417969 115.347656 73.949219 115.472656 75.511719 115.480469 C 73.402344 116.015625 71.148438 116.246094 69.085938 115.964844 C 69.800781 115.796875 70.46875 115.511719 71.054688 115.109375 Z M 104.070312 57.214844 C 104.058594 57.050781 103.816406 57.050781 103.816406 57.214844 C 103.816406 57.445312 103.800781 57.671875 103.796875 57.902344 C 103.640625 52.03125 101.601562 46.285156 98.882812 41.140625 C 98.847656 41.078125 98.8125 41.019531 98.777344 40.957031 C 97.832031 37.347656 96.707031 33.777344 95.660156 30.226562 C 98.609375 33.011719 100.71875 36.617188 102.425781 40.476562 C 102.492188 40.625 102.71875 40.515625 102.679688 40.371094 C 100.117188 30.988281 92.535156 25.570312 83.894531 24.25 C 79.84375 21.800781 74.4375 22.511719 70.074219 23.652344 C 67.4375 24.339844 64.851562 25.347656 62.390625 26.605469 C 59.164062 27.574219 56.136719 29.210938 53.472656 31.617188 C 48.523438 36.101562 45.949219 42.511719 45.144531 49.058594 C 44.976562 49.457031 44.816406 49.855469 44.671875 50.265625 C 44.597656 50.46875 44.542969 50.667969 44.476562 50.871094 C 44.441406 50.824219 44.355469 50.820312 44.335938 50.890625 C 44.160156 51.578125 44.015625 52.257812 43.894531 52.933594 C 43.253906 55.742188 43.253906 58.347656 43.722656 60.808594 C 44.316406 65.066406 46 69.128906 48.527344 73.019531 C 48.589844 73.113281 48.734375 73.023438 48.675781 72.929688 C 46.816406 70.070312 45.496094 67.203125 44.695312 64.253906 C 45.589844 66.613281 46.871094 68.847656 48.378906 71.019531 C 49.300781 73.03125 50.195312 75.054688 50.898438 77.160156 C 49.253906 74.648438 47.472656 72.230469 45.765625 69.765625 C 43.664062 63.742188 42.710938 57.003906 43.683594 50.664062 C 43.699219 50.589844 43.578125 50.554688 43.566406 50.632812 C 42.597656 56.539062 43.257812 62.695312 44.859375 68.460938 C 44.164062 67.425781 43.488281 66.378906 42.851562 65.304688 C 41.199219 58.46875 41.972656 50.769531 44.496094 44.632812 C 44.53125 44.539062 44.378906 44.476562 44.339844 44.566406 C 40.3125 53.582031 39.695312 69.234375 47.984375 76.390625 C 48.589844 77.519531 49.238281 78.628906 49.964844 79.679688 C 51.472656 81.875 53.773438 84.683594 56.40625 85.503906 C 56.523438 85.539062 56.613281 85.453125 56.636719 85.351562 C 56.851562 85.707031 57.070312 86.0625 57.292969 86.414062 C 58.417969 88.1875 59.441406 89.878906 60.328125 91.613281 C 60.730469 93 61.175781 94.371094 61.625 95.742188 C 61.773438 97.207031 61.882812 98.675781 61.933594 100.15625 C 61.226562 100.335938 60.648438 100.777344 60.160156 101.355469 C 59.875 101.285156 59.585938 101.21875 59.304688 101.144531 C 59.050781 101.074219 58.945312 101.464844 59.195312 101.539062 C 59.414062 101.605469 59.640625 101.667969 59.863281 101.730469 L 59.835938 101.773438 C 59.242188 102.078125 59.074219 102.433594 59.199219 102.816406 C 58.867188 103.429688 58.570312 104.082031 58.300781 104.695312 C 58.214844 104.882812 58.285156 105.050781 58.472656 105.128906 C 58.746094 105.234375 59.050781 105.351562 59.386719 105.472656 C 59.074219 105.941406 58.964844 106.449219 58.992188 106.960938 C 58.46875 107.644531 58.398438 108.605469 58.609375 109.414062 C 58.976562 110.804688 60.039062 111.539062 61.242188 111.738281 L 61.242188 111.753906 C 60.265625 113.097656 61.359375 114.484375 63.058594 115.273438 C 63.511719 115.480469 64.023438 115.652344 64.550781 115.792969 C 64.054688 115.902344 63.636719 116.09375 63.59375 116.480469 C 63.4375 117.957031 64.90625 119.382812 66.117188 119.960938 C 68.871094 121.265625 73.191406 120.125 76.074219 118.5 C 76.828125 118.355469 77.542969 118.199219 78.1875 118.039062 C 79.238281 117.78125 82.703125 116.671875 83.511719 115.207031 C 83.609375 115.394531 83.703125 115.582031 83.804688 115.765625 C 84.035156 116.195312 84.238281 116.675781 84.707031 116.863281 C 84.78125 116.894531 84.859375 116.820312 84.859375 116.75 C 84.867188 116.296875 84.582031 115.984375 84.347656 115.617188 C 84.128906 115.273438 83.898438 114.929688 83.6875 114.582031 C 83.683594 114.464844 83.664062 114.347656 83.625 114.230469 C 83.667969 114.210938 83.710938 114.191406 83.753906 114.175781 C 84.234375 114.449219 84.554688 114.78125 84.660156 115.371094 C 84.675781 115.46875 84.8125 115.433594 84.820312 115.351562 C 84.886719 114.714844 84.574219 114.328125 84.113281 114.019531 C 86.511719 112.910156 87.628906 111.144531 85.917969 108.617188 C 85.816406 108.472656 85.609375 108.566406 85.640625 108.734375 C 86.011719 110.871094 85.769531 112.433594 83.695312 113.449219 C 83.550781 113.523438 83.398438 113.578125 83.246094 113.640625 L 83.164062 113.566406 L 83.160156 113.554688 C 83.132812 113.492188 83.089844 113.464844 83.035156 113.449219 C 82.96875 113.390625 82.917969 113.328125 82.835938 113.269531 C 82.488281 113.003906 82.0625 113.578125 82.375 113.871094 L 82.429688 113.929688 C 81.777344 114.121094 81.097656 114.253906 80.410156 114.332031 C 80.785156 114.023438 81.121094 113.695312 81.394531 113.335938 C 81.503906 113.195312 81.296875 113.011719 81.160156 113.101562 C 80.40625 113.59375 79.511719 114.058594 78.535156 114.472656 C 78.105469 114.488281 77.679688 114.496094 77.265625 114.503906 C 73.648438 114.570312 70.109375 114.007812 66.613281 113.136719 C 66.503906 113.109375 66.421875 113.246094 66.503906 113.328125 C 67.183594 114.027344 68.496094 114.566406 70.136719 114.929688 C 69.476562 115.148438 68.792969 115.285156 68.097656 115.339844 C 68.097656 115.277344 68.0625 115.21875 67.976562 115.222656 C 67.292969 115.25 66.59375 115.15625 65.90625 114.980469 C 64.824219 114.410156 63.890625 113.597656 63.195312 112.488281 C 63.109375 112.355469 62.929688 112.46875 62.988281 112.609375 C 63.265625 113.246094 63.683594 113.796875 64.164062 114.285156 C 63.390625 113.847656 62.703125 113.269531 62.191406 112.550781 C 61.988281 112.261719 61.914062 112.015625 61.921875 111.800781 C 62.625 111.796875 63.335938 111.605469 63.96875 111.269531 C 64.015625 111.273438 64.058594 111.277344 64.101562 111.285156 C 64.175781 111.296875 64.257812 111.265625 64.277344 111.183594 L 64.285156 111.109375 L 64.289062 111.109375 C 64.5 111.132812 64.703125 111.15625 64.875 111.171875 C 65.210938 111.207031 65.554688 111.234375 65.898438 111.261719 C 67.664062 111.582031 69.453125 111.761719 71.21875 111.851562 C 72.453125 111.910156 74.011719 111.925781 75.582031 111.757812 C 78.640625 111.648438 81.828125 110.632812 83.972656 109.242188 C 84.570312 108.855469 85.527344 108.234375 86.21875 107.5 C 86.546875 108.015625 86.949219 108.472656 87.445312 108.84375 C 87.585938 108.949219 87.765625 108.746094 87.679688 108.609375 C 87.308594 108.011719 87.019531 107.386719 86.78125 106.746094 C 86.941406 106.453125 87.050781 106.15625 87.050781 105.855469 C 87.050781 105.761719 87.019531 105.699219 87 105.625 C 87.0625 105.621094 87.121094 105.621094 87.183594 105.621094 C 87.421875 105.621094 87.574219 105.429688 87.589844 105.214844 C 87.398438 105.195312 87.207031 105.167969 87.011719 105.097656 C 86.757812 105.023438 86.519531 104.914062 86.269531 104.820312 L 86.222656 104.824219 L 86.21875 104.800781 C 86.015625 104.726562 85.808594 104.664062 85.613281 104.574219 C 85.515625 104.535156 85.429688 104.480469 85.34375 104.429688 C 86.238281 103.410156 86.597656 101.726562 85.832031 100.703125 C 85.808594 97.929688 85.640625 95.167969 86.0625 92.417969 L 86.03125 92.40625 C 85.5625 95.128906 85.710938 97.847656 85.738281 100.59375 C 85.695312 100.542969 85.660156 100.480469 85.609375 100.433594 C 84.882812 99.777344 83.070312 100.171875 82.222656 100.234375 C 80.503906 100.351562 78.84375 101.035156 77.164062 101.449219 C 76.890625 101.480469 76.617188 101.511719 76.339844 101.546875 C 76.171875 101.597656 76 101.648438 75.820312 101.683594 C 74.011719 102.050781 72.230469 101.644531 70.421875 101.515625 C 69.96875 101.484375 69.574219 101.351562 69.246094 101.160156 C 68.59375 101.109375 67.9375 101.050781 67.28125 100.992188 C 67.058594 100.96875 66.851562 100.925781 66.660156 100.863281 C 66.53125 100.855469 66.402344 100.855469 66.269531 100.84375 C 66.332031 100.820312 66.394531 100.804688 66.457031 100.78125 C 66.246094 100.691406 66.054688 100.585938 65.882812 100.457031 C 65.621094 100.519531 65.359375 100.570312 65.09375 100.648438 C 64.746094 100.746094 64.757812 101.230469 65.09375 101.335938 C 68.199219 102.308594 71.507812 102.660156 74.773438 102.640625 C 74.066406 102.757812 73.339844 102.847656 72.578125 102.898438 C 69.988281 103.066406 67.375 102.832031 64.800781 102.382812 C 64.984375 96.058594 63.503906 90.328125 60.867188 84.496094 C 59.691406 81.902344 58.203125 79.972656 56.132812 78.050781 C 54.789062 76.808594 53.445312 75.609375 52.292969 74.25 C 52.078125 73.9375 51.867188 73.621094 51.652344 73.308594 L 51.664062 73.285156 C 51.5625 73.15625 51.46875 73.027344 51.371094 72.898438 C 51.074219 72.460938 50.78125 72.027344 50.488281 71.589844 C 50.359375 71.328125 50.222656 71.070312 50.109375 70.792969 C 50.058594 70.660156 49.953125 70.617188 49.84375 70.617188 C 48.53125 68.605469 47.34375 66.542969 46.46875 64.335938 C 46.964844 65.199219 47.570312 66.007812 48.277344 66.761719 C 48.316406 67.203125 48.355469 67.640625 48.394531 68.070312 C 48.398438 68.113281 48.460938 68.113281 48.460938 68.070312 C 48.441406 67.683594 48.421875 67.292969 48.398438 66.898438 C 48.703125 67.214844 49.027344 67.527344 49.378906 67.820312 C 49.511719 67.933594 49.707031 67.746094 49.574219 67.621094 C 49.132812 67.214844 48.730469 66.789062 48.363281 66.347656 C 47.992188 60.46875 47.179688 53.972656 47.730469 47.878906 C 47.8125 47.445312 47.898438 47.011719 48 46.582031 C 49.082031 44.632812 50.40625 42.824219 51.90625 41.152344 C 50.109375 44.769531 49.078125 48.777344 49.054688 53.011719 C 49.054688 53.101562 49.195312 53.101562 49.195312 53.011719 C 49.269531 48.304688 50.625 43.964844 52.859375 40.152344 C 57.398438 35.511719 63.34375 32.101562 69.328125 30.242188 C 73.699219 28.882812 78.386719 28.457031 82.886719 29.339844 C 86.152344 30.828125 88.921875 33.234375 91.296875 36.285156 C 91.371094 36.382812 91.53125 36.253906 91.46875 36.148438 C 89.71875 33.390625 87.527344 31.332031 85.007812 29.882812 C 89.585938 31.34375 93.019531 34.511719 95.664062 38.566406 C 96.308594 39.554688 96.898438 40.574219 97.464844 41.597656 C 97.726562 42.179688 97.984375 42.761719 98.230469 43.347656 C 98.675781 44.425781 99.105469 45.535156 99.511719 46.664062 C 100.128906 49.761719 100.546875 52.90625 100.578125 56.164062 C 100.65625 64.636719 97.292969 71.761719 94.582031 79.445312 C 93.707031 80.910156 92.875 82.382812 92.132812 83.890625 C 91.238281 85.421875 90.40625 86.976562 89.675781 88.566406 C 89.683594 88.445312 89.703125 88.328125 89.710938 88.210938 C 89.714844 88.039062 89.558594 87.949219 89.414062 87.96875 C 89.445312 87.878906 89.472656 87.789062 89.5 87.695312 C 89.519531 87.632812 89.425781 87.609375 89.40625 87.671875 C 89.359375 87.792969 89.320312 87.914062 89.277344 88.035156 L 89.230469 88.078125 C 88.46875 89.496094 88.074219 91.015625 87.78125 92.5625 C 87.320312 94.074219 86.890625 95.59375 86.503906 97.117188 C 86.476562 97.210938 86.617188 97.25 86.644531 97.15625 C 86.914062 96.097656 87.21875 95.046875 87.53125 94 C 87.421875 94.691406 87.316406 95.386719 87.191406 96.074219 C 87.046875 96.480469 86.914062 96.890625 86.78125 97.300781 C 86.753906 97.3125 86.730469 97.335938 86.722656 97.371094 C 86.597656 97.894531 86.417969 98.378906 86.316406 98.90625 C 86.25 99.238281 86.746094 99.382812 86.828125 99.046875 C 86.914062 98.695312 87.015625 98.34375 87.117188 97.996094 C 87.355469 97.40625 87.542969 96.796875 87.695312 96.171875 C 87.902344 95.558594 88.117188 94.941406 88.324219 94.324219 C 88.476562 94.351562 88.628906 94.371094 88.78125 94.398438 C 88.960938 93.660156 89.164062 92.921875 89.402344 92.199219 C 89.292969 92.949219 89.238281 93.710938 89.203125 94.488281 C 89.296875 94.507812 89.394531 94.53125 89.488281 94.554688 C 89.769531 92.289062 90.324219 90.140625 91.089844 88.078125 C 92.414062 85.3125 94.042969 82.648438 95.695312 80.050781 C 98.875 75.039062 101.792969 70.300781 103.105469 64.671875 C 103.824219 62.277344 104.21875 59.792969 104.070312 57.214844 "/>
</g>
</g>
</svg>
