<?xml version="1.0" encoding="UTF-8"?>
<svg xmlns="http://www.w3.org/2000/svg" xmlns:xlink="http://www.w3.org/1999/xlink" width="192px" height="192px" viewBox="0 0 192 192" version="1.1">
<defs>
<clipPath id="clip1">
  <path d="M 55.296875 30 L 138.925781 30 L 138.925781 160.769531 L 55.296875 160.769531 Z M 55.296875 30 "/>
</clipPath>
</defs>
<g id="surface1">
<path style=" stroke:none;fill-rule:nonzero;fill:rgb(100%,100%,100%);fill-opacity:1;" d="M 114.957031 125.320312 C 115.324219 125.382812 115.691406 125.4375 116.058594 125.496094 C 116.449219 124.035156 116.902344 122.59375 117.359375 121.164062 C 117.421875 120.96875 117.144531 120.847656 117.035156 120.996094 C 118.554688 115.417969 120.816406 109.28125 124.785156 105.402344 C 125 105.191406 124.683594 104.886719 124.460938 105.074219 C 118.980469 109.703125 116.484375 118.558594 114.902344 125.308594 L 114.957031 125.320312 "/>
<path style=" stroke:none;fill-rule:nonzero;fill:rgb(100%,100%,100%);fill-opacity:1;" d="M 111.039062 143.90625 C 110.921875 144.03125 110.546875 144.285156 110.585938 144.480469 L 110.636719 144.535156 C 110.835938 144.570312 111.089844 144.199219 111.207031 144.078125 C 111.316406 143.96875 111.144531 143.796875 111.039062 143.90625 "/>
<path style=" stroke:none;fill-rule:nonzero;fill:rgb(100%,100%,100%);fill-opacity:1;" d="M 109.925781 155.511719 C 106.867188 160.621094 101.652344 161.699219 95.957031 161.6875 C 92.992188 161.683594 82.800781 160.992188 83.296875 156.132812 C 83.3125 156.011719 83.105469 155.980469 83.085938 156.105469 C 82.179688 161.425781 91.179688 162.457031 94.632812 162.703125 C 99.070312 163.027344 110.421875 162.195312 110.503906 155.667969 C 110.507812 155.351562 110.078125 155.246094 109.925781 155.511719 "/>
<path style=" stroke:none;fill-rule:nonzero;fill:rgb(100%,100%,100%);fill-opacity:1;" d="M 114.316406 84.628906 C 114.285156 84.664062 114.257812 84.707031 114.226562 84.746094 L 114.222656 84.746094 L 114.203125 84.777344 C 113.449219 85.726562 112.757812 86.71875 112.097656 87.738281 C 111.296875 88.648438 110.398438 89.472656 109.382812 90.183594 C 105.296875 93.023438 105.007812 88.203125 105.46875 85.1875 C 105.574219 84.503906 104.695312 84.257812 104.4375 84.902344 C 103.417969 87.472656 102.34375 90.171875 100.433594 92.214844 C 97.882812 94.949219 96.226562 90.4375 95.878906 88.875 C 95.792969 88.484375 95.742188 88.082031 95.707031 87.679688 C 95.761719 86.664062 95.746094 85.730469 95.738281 85.042969 C 95.730469 84.304688 94.683594 84.328125 94.617188 85.042969 C 94.554688 85.707031 94.535156 86.597656 94.597656 87.554688 C 94.464844 90.464844 93.753906 93.765625 90.363281 92.964844 C 86.976562 92.164062 83.925781 89.144531 81.296875 87.0625 C 80.679688 86.570312 79.921875 87.3125 80.429688 87.929688 C 89.671875 99.136719 93.25 115.648438 93.621094 129.871094 C 93.640625 130.523438 94.632812 130.527344 94.636719 129.871094 C 94.773438 116.871094 91.21875 102.203125 84.042969 90.976562 C 86.347656 92.777344 88.9375 94.351562 91.613281 94.382812 C 93.683594 94.40625 94.71875 92.851562 95.234375 90.933594 C 95.828125 92.636719 96.882812 93.988281 98.683594 94.007812 C 101.292969 94.027344 102.929688 91.359375 104.078125 88.714844 C 104.160156 90.535156 104.792969 92.152344 106.882812 92.328125 C 107.925781 92.414062 108.957031 92.046875 109.929688 91.429688 C 104.808594 101.246094 102.898438 113.152344 101.242188 123.761719 C 101.128906 124.492188 102.160156 124.820312 102.378906 124.070312 C 105.855469 112.265625 106.296875 99.3125 112.882812 88.714844 C 113.867188 87.535156 114.683594 86.285156 115.238281 85.339844 C 115.566406 84.777344 114.738281 84.097656 114.316406 84.628906 "/>
<g clip-path="url(#clip1)" clip-rule="nonzero">
<path style=" stroke:none;fill-rule:nonzero;fill:rgb(100%,100%,100%);fill-opacity:1;" d="M 133.039062 94.429688 C 131.492188 97.238281 129.765625 99.980469 128.0625 102.730469 C 131.519531 94.203125 134.394531 85.515625 134.683594 76.183594 C 134.78125 73.03125 134.585938 69.90625 134.183594 66.8125 C 135.414062 71.007812 136.273438 75.335938 136.394531 79.644531 C 136.277344 84.609375 135.210938 89.578125 133.039062 94.429688 Z M 125.375 45.378906 C 124.867188 44.613281 124.363281 43.847656 123.816406 43.101562 C 122.203125 40.882812 120.347656 38.875 118.296875 37.054688 C 117.226562 36.105469 116.097656 34.503906 114.71875 33.984375 C 114.605469 33.945312 114.453125 34.03125 114.433594 34.148438 C 114.339844 34.679688 114.394531 34.542969 114.632812 35.257812 C 114.722656 35.527344 115.148438 35.414062 115.0625 35.140625 C 114.816406 34.359375 116.457031 36.371094 116.308594 36.207031 C 117.003906 36.996094 117.839844 37.640625 118.605469 38.355469 C 119.933594 39.582031 121.121094 40.960938 122.230469 42.394531 C 120.984375 41.390625 119.648438 40.476562 118.179688 39.691406 C 115.207031 38.105469 112.039062 37.164062 108.789062 36.738281 C 105.375 35.347656 101.882812 34.253906 98.050781 34.203125 C 97.84375 34.199219 97.628906 34.226562 97.414062 34.230469 C 97.03125 34.191406 96.648438 34.179688 96.261719 34.152344 C 101.359375 32.714844 106.78125 32.300781 112.011719 33.078125 C 112.304688 33.214844 112.601562 33.351562 112.886719 33.5 C 113.066406 33.597656 113.199219 33.425781 113.152344 33.273438 C 115.484375 33.699219 117.773438 34.347656 119.96875 35.285156 C 122.636719 36.429688 124.941406 37.953125 126.960938 39.757812 C 127.957031 43.882812 129.109375 47.929688 130.207031 51.964844 C 128.785156 49.601562 127.203125 47.371094 125.375 45.378906 Z M 102.796875 36.496094 C 101.304688 36.324219 99.78125 36.234375 98.21875 36.253906 C 96.972656 36.265625 92.199219 36.308594 88.609375 37.101562 C 89.480469 36.679688 90.363281 36.28125 91.261719 35.910156 C 93.832031 35.199219 96.46875 34.777344 99.089844 34.789062 C 101.972656 34.804688 104.804688 35.578125 107.570312 36.617188 C 105.988281 36.46875 104.394531 36.425781 102.796875 36.496094 Z M 84.40625 41.304688 C 81.496094 42.664062 78.675781 44.332031 76.007812 46.238281 C 78.519531 43.617188 81.371094 41.285156 84.496094 39.34375 C 84.386719 39.652344 84.382812 39.988281 84.496094 40.359375 C 84.535156 40.472656 84.707031 40.425781 84.675781 40.308594 C 83.898438 37.476562 93.574219 36.953125 98.605469 36.910156 C 93.648438 37.652344 88.785156 39.257812 84.40625 41.304688 Z M 73.40625 48.230469 C 70.730469 50.414062 68.257812 52.851562 66.109375 55.539062 C 66.722656 54.058594 67.425781 52.605469 68.21875 51.1875 C 71.699219 46.839844 76.210938 43.195312 81.054688 40.320312 C 81.78125 39.890625 82.53125 39.476562 83.289062 39.078125 C 79.523438 41.597656 76.164062 44.695312 73.40625 48.230469 Z M 64.675781 57.441406 C 64.828125 56.820312 65.011719 56.207031 65.195312 55.597656 C 65.644531 54.800781 66.144531 54.035156 66.664062 53.277344 C 66.09375 54.441406 65.558594 55.625 65.097656 56.84375 C 64.953125 57.039062 64.820312 57.242188 64.675781 57.441406 Z M 61.003906 63.597656 C 60.941406 63.730469 60.882812 63.867188 60.820312 64.003906 C 62.144531 56.46875 65.164062 49.339844 70.539062 43.660156 C 73.507812 40.527344 77.011719 38.28125 80.804688 36.769531 C 78.21875 38.261719 75.753906 39.957031 73.476562 41.828125 C 69.777344 44.875 67.304688 48.535156 65.691406 52.558594 C 63.679688 56.144531 62.132812 59.980469 61.003906 63.597656 Z M 64.289062 88.1875 C 61.085938 84.152344 60.007812 79.113281 60.164062 73.984375 C 60.339844 72.132812 60.726562 70.296875 61.269531 68.496094 C 61.363281 68.523438 61.472656 68.484375 61.480469 68.351562 C 61.488281 68.097656 61.527344 67.851562 61.542969 67.601562 C 61.820312 66.773438 62.125 65.945312 62.476562 65.140625 C 62.671875 64.695312 62.894531 64.265625 63.105469 63.824219 C 62.128906 68.894531 62.054688 74.230469 63.042969 79.59375 C 63.074219 79.769531 63.328125 79.691406 63.304688 79.519531 C 62.820312 76.058594 62.703125 72.597656 62.945312 69.1875 C 62.929688 75.617188 63.703125 82.171875 64.289062 88.1875 Z M 69.972656 46.296875 C 70.671875 45.421875 71.425781 44.574219 72.265625 43.761719 C 74.5625 41.542969 77.34375 39.425781 80.414062 37.566406 C 78.921875 38.539062 77.488281 39.601562 76.160156 40.769531 C 73.84375 42.238281 71.789062 44.136719 69.972656 46.296875 Z M 85.878906 35.207031 C 88.050781 34.726562 90.28125 34.46875 92.527344 34.390625 C 91.140625 34.898438 89.78125 35.472656 88.457031 36.121094 C 85.742188 37.132812 83.132812 38.4375 80.746094 39.792969 C 77.191406 41.816406 73.578125 44.5 70.429688 47.664062 C 70.480469 47.59375 70.527344 47.519531 70.578125 47.445312 C 71.757812 45.792969 73.066406 44.28125 74.472656 42.890625 C 75.640625 41.847656 76.855469 40.863281 78.15625 40.015625 C 78.289062 39.929688 78.238281 39.769531 78.128906 39.71875 C 80.523438 37.914062 83.132812 36.414062 85.878906 35.207031 Z M 99.949219 31.335938 C 96.839844 31.457031 93.871094 31.945312 91.050781 32.734375 C 97.179688 30.8125 103.59375 30.273438 109.28125 32.023438 C 105.09375 31.683594 100.777344 32.050781 96.578125 33.125 C 95.523438 33.394531 94.484375 33.707031 93.460938 34.054688 C 91.515625 34.050781 89.582031 34.179688 87.691406 34.472656 C 91.59375 32.960938 95.734375 31.992188 99.949219 31.589844 C 100.109375 31.574219 100.117188 31.328125 99.949219 31.335938 Z M 66.023438 96.796875 C 67.21875 100.75 69.796875 104.269531 72.269531 107.503906 C 73.054688 109.542969 74.113281 111.492188 75.261719 113.394531 C 72.304688 110.589844 69.335938 108.511719 66.902344 105.078125 C 66.464844 104.46875 66.085938 103.816406 65.691406 103.179688 C 66.164062 103.503906 66.648438 103.8125 67.160156 104.101562 C 67.320312 104.191406 67.519531 103.957031 67.367188 103.835938 C 66.367188 103.054688 65.460938 102.199219 64.605469 101.300781 C 63.308594 98.894531 62.234375 96.371094 61.308594 93.808594 C 63.625 97.082031 66.023438 100.292969 68.257812 103.625 C 68.289062 103.671875 68.359375 103.628906 68.332031 103.582031 C 68.191406 103.363281 68.042969 103.148438 67.898438 102.929688 C 67.941406 102.976562 68.027344 102.957031 68.007812 102.886719 C 67.296875 100.496094 66.371094 98.195312 65.386719 95.921875 C 65.59375 96.214844 65.804688 96.507812 66.023438 96.796875 Z M 74.152344 106.523438 C 74.1875 106.578125 74.222656 106.636719 74.253906 106.691406 C 74.285156 106.742188 74.335938 106.746094 74.375 106.730469 C 75.484375 107.765625 76.484375 108.8125 77.207031 109.929688 C 77.636719 110.601562 78.046875 111.285156 78.441406 111.976562 C 78.492188 112.699219 78.570312 113.421875 78.667969 114.136719 C 76.542969 111.265625 74.246094 108.515625 72.105469 105.664062 C 71.96875 105.238281 71.847656 104.804688 71.738281 104.371094 C 72.554688 105.09375 73.375 105.804688 74.152344 106.523438 Z M 79.632812 119.152344 C 79.414062 118.804688 79.199219 118.464844 78.988281 118.128906 C 77.121094 115.160156 75.015625 112.1875 73.464844 109.007812 C 75.265625 111.269531 77.128906 113.484375 78.914062 115.761719 C 79.113281 116.894531 79.359375 118.027344 79.632812 119.152344 Z M 81.242188 117.84375 L 81.242188 117.875 C 80.675781 116.96875 80.0625 116.089844 79.445312 115.21875 C 79.292969 114.523438 79.164062 113.824219 79.054688 113.125 C 79.871094 114.664062 80.597656 116.238281 81.242188 117.84375 Z M 81.632812 122.527344 C 81.558594 122.394531 81.488281 122.265625 81.421875 122.132812 C 80.851562 120.425781 80.3125 118.710938 79.863281 116.972656 C 80.367188 117.640625 80.84375 118.332031 81.324219 119.015625 C 81.40625 120.191406 81.511719 121.359375 81.632812 122.527344 Z M 82.140625 120.152344 C 83.933594 125.296875 84.933594 130.699219 85.445312 136.144531 C 85.339844 136.09375 85.234375 136.03125 85.132812 135.976562 C 85.046875 135.226562 84.9375 134.484375 84.808594 133.746094 C 84.882812 133.761719 84.957031 133.761719 85.035156 133.78125 C 85.113281 133.792969 85.140625 133.6875 85.066406 133.660156 C 84.96875 133.628906 84.875 133.617188 84.773438 133.589844 C 84.644531 132.898438 84.503906 132.214844 84.339844 131.535156 C 84.402344 129.125 83.664062 126.730469 82.609375 124.453125 C 82.375 122.917969 82.132812 121.386719 81.933594 119.867188 C 82 119.964844 82.074219 120.054688 82.140625 120.152344 Z M 83.777344 135.171875 C 83.882812 134.679688 83.960938 134.171875 84.019531 133.65625 L 84.070312 133.652344 C 84.285156 134.347656 84.472656 135.039062 84.664062 135.722656 C 84.359375 135.554688 84.066406 135.371094 83.777344 135.171875 Z M 85.628906 138.390625 C 85.660156 138.851562 86.304688 138.851562 86.339844 138.390625 C 86.363281 137.988281 86.363281 137.605469 86.378906 137.210938 C 86.445312 137.222656 86.511719 137.234375 86.582031 137.246094 C 87.820312 137.621094 89.078125 137.863281 90.066406 138.070312 C 93.902344 138.871094 97.894531 139.144531 101.8125 138.976562 C 101.964844 138.96875 101.964844 138.746094 101.8125 138.738281 C 98.789062 138.570312 95.191406 138.503906 91.738281 137.957031 C 95.4375 138.285156 99.175781 138.15625 102.625 137.359375 C 102.359375 137.117188 102.125 136.828125 101.929688 136.523438 C 102.769531 136.433594 103.597656 136.296875 104.378906 136.183594 C 106.5625 135.863281 109.203125 135.734375 111.21875 134.707031 C 111.726562 134.710938 112.234375 134.726562 112.726562 134.722656 C 114.367188 134.722656 113.769531 137.355469 113.457031 138.003906 C 113.304688 138.320312 113.109375 138.554688 112.882812 138.742188 C 112.597656 138.738281 112.3125 138.734375 112.03125 138.734375 C 108.425781 140.699219 103.414062 140.8125 99.648438 140.679688 C 98.5625 140.640625 97.480469 140.566406 96.398438 140.480469 C 96.554688 140.289062 96.710938 140.101562 96.84375 139.878906 C 96.925781 139.738281 96.75 139.53125 96.605469 139.640625 C 96.214844 139.933594 95.816406 140.175781 95.410156 140.394531 C 94.460938 140.3125 93.507812 140.21875 92.5625 140.109375 C 92.304688 140.078125 86.449219 139.285156 87.023438 138.453125 C 87.105469 138.339844 86.914062 138.1875 86.828125 138.300781 C 85.816406 139.597656 90.453125 140.574219 93.777344 141.09375 C 92.902344 141.382812 92.003906 141.5625 91.085938 141.648438 C 90.746094 141.570312 90.417969 141.507812 90.074219 141.429688 C 88.101562 140.957031 86.152344 140.351562 84.242188 139.667969 C 83.035156 139.234375 81.859375 138.730469 80.722656 138.136719 C 80.066406 137.796875 79.773438 137.453125 79.714844 137.125 C 79.773438 137.007812 79.824219 136.914062 79.839844 136.878906 C 79.984375 136.59375 80.15625 136.332031 80.324219 136.066406 C 80.417969 135.996094 80.519531 135.933594 80.628906 135.871094 C 81.257812 136.046875 81.890625 136.214844 82.550781 136.378906 C 82.375 136.875 82.195312 137.367188 82.085938 137.875 C 82.0625 137.996094 82.171875 138.148438 82.308594 138.097656 C 82.394531 138.0625 82.46875 138.015625 82.546875 137.964844 C 82.539062 138.109375 82.539062 138.246094 82.53125 138.390625 C 82.511719 138.613281 82.867188 138.65625 82.914062 138.445312 C 82.992188 138.089844 83.050781 137.734375 83.113281 137.382812 C 83.253906 137.144531 83.355469 136.875 83.441406 136.59375 C 84.121094 136.753906 84.816406 136.90625 85.519531 137.046875 C 85.554688 137.492188 85.597656 137.941406 85.628906 138.390625 Z M 114.007812 141.242188 C 114.101562 141.527344 114.1875 141.808594 114.300781 142.078125 C 114.105469 142.402344 113.722656 142.808594 113.152344 143.328125 C 111.742188 144.609375 110.15625 145.503906 108.425781 146.167969 C 108.625 145.980469 108.808594 145.785156 108.976562 145.574219 C 109.117188 145.398438 108.992188 145.042969 108.726562 145.144531 C 106.53125 145.992188 104.492188 146.660156 102.4375 147.140625 C 102.402344 147.089844 102.359375 147.050781 102.277344 147.054688 C 99.71875 147.21875 97.144531 147.320312 94.574219 147.386719 C 93.890625 147.199219 93.21875 146.96875 92.574219 146.667969 C 92.402344 146.585938 92.273438 146.8125 92.429688 146.921875 C 92.679688 147.101562 92.949219 147.261719 93.21875 147.414062 C 92.621094 147.429688 92.023438 147.453125 91.425781 147.457031 C 91.023438 147.457031 90.023438 147.464844 88.800781 147.425781 C 87.78125 147.261719 86.761719 147.078125 85.742188 146.871094 C 84.625 146.644531 83.519531 146.34375 82.421875 146.027344 C 82.117188 145.933594 81.8125 145.835938 81.511719 145.738281 C 81.453125 145.6875 81.378906 145.648438 81.320312 145.597656 C 81.285156 145.515625 81.269531 145.425781 81.257812 145.332031 C 81.867188 145.410156 82.558594 145.515625 82.722656 145.515625 C 82.882812 145.515625 82.882812 145.277344 82.722656 145.273438 C 82.230469 145.28125 81.738281 145.265625 81.246094 145.234375 C 81.246094 144.898438 81.429688 144.507812 81.859375 144.058594 C 81.945312 143.972656 81.8125 143.847656 81.726562 143.929688 C 81.269531 144.367188 80.988281 144.757812 80.835938 145.113281 C 80.226562 144.429688 79.804688 143.648438 79.714844 142.777344 C 80.449219 142.074219 81.609375 141.707031 82.761719 141.734375 C 85.460938 142.453125 88.566406 142.996094 91.265625 142.761719 C 92.796875 143.113281 94.335938 143.414062 95.878906 143.621094 C 99.96875 144.171875 105.785156 144.949219 109.378906 142.328125 C 109.59375 142.171875 109.46875 141.839844 109.199219 141.898438 C 103.875 143.058594 99.035156 143.054688 93.90625 142.199219 C 94.488281 141.980469 95.023438 141.695312 95.496094 141.34375 C 96.179688 141.433594 96.679688 141.492188 96.855469 141.507812 C 100.765625 141.914062 106.15625 142.214844 110.460938 140.769531 C 111.054688 140.824219 111.652344 140.851562 112.25 140.863281 C 112.296875 140.960938 112.371094 141.042969 112.519531 141.046875 C 113.214844 141.070312 113.691406 141.136719 114.007812 141.242188 Z M 82.09375 147.980469 C 80.871094 147.8125 79.804688 147.195312 79.210938 145.753906 C 78.945312 145.109375 78.898438 144.535156 79 144.035156 C 79.15625 144.394531 79.367188 144.742188 79.605469 145.074219 L 79.554688 145.070312 C 79.210938 145.019531 78.925781 145.503906 79.296875 145.683594 C 79.769531 145.910156 80.25 146.113281 80.730469 146.3125 C 80.855469 146.417969 80.976562 146.53125 81.105469 146.628906 C 81.359375 146.882812 81.714844 147.097656 82.128906 147.277344 C 82.339844 147.386719 82.558594 147.464844 82.777344 147.542969 C 82.523438 147.640625 82.292969 147.789062 82.09375 147.980469 Z M 84.054688 152.597656 C 82.792969 151.960938 81.761719 151.0625 81.871094 149.964844 C 81.984375 150.234375 82.121094 150.492188 82.257812 150.710938 C 82.699219 151.40625 83.332031 152.046875 84.054688 152.597656 Z M 78.765625 139.632812 C 78.5625 139.5625 79 138.578125 79.375 137.800781 C 80.414062 138.941406 82.820312 140.105469 84.625 140.78125 C 85.347656 141.050781 86.085938 141.296875 86.824219 141.535156 C 85.898438 141.425781 84.972656 141.273438 84.066406 141.101562 C 82.757812 140.851562 81.476562 140.484375 80.207031 140.089844 C 80.117188 139.953125 79.957031 139.890625 79.800781 139.960938 C 79.453125 139.847656 79.105469 139.75 78.765625 139.632812 Z M 82.117188 134.175781 L 82.128906 134.265625 C 82.253906 134.527344 82.429688 134.757812 82.609375 134.984375 C 82.613281 135.238281 82.613281 135.488281 82.613281 135.742188 C 82.242188 135.65625 81.878906 135.5625 81.515625 135.46875 C 81.777344 135.375 82.042969 135.300781 82.292969 135.246094 C 82.460938 135.214844 82.386719 134.96875 82.222656 134.996094 C 81.691406 135.082031 81.257812 135.183594 80.859375 135.292969 C 81.226562 134.839844 81.644531 134.457031 82.117188 134.175781 Z M 57.34375 87.859375 C 58.195312 89.257812 59.097656 90.625 60.019531 91.976562 C 60.226562 92.691406 60.425781 93.40625 60.65625 94.113281 C 61.175781 95.722656 61.8125 97.296875 62.503906 98.84375 C 60.09375 95.609375 58.398438 91.851562 57.34375 87.859375 Z M 89.757812 154.890625 C 94.550781 156.539062 100.980469 155.992188 105.246094 153.742188 C 107.074219 153.542969 108.8125 153.203125 110.332031 152.722656 C 110.449219 154.355469 106.285156 155.703125 103.308594 156.445312 C 103.257812 156.40625 103.1875 156.386719 103.109375 156.425781 C 102.984375 156.480469 102.859375 156.53125 102.738281 156.585938 C 101.730469 156.820312 100.925781 156.980469 100.578125 157.042969 C 96.101562 157.824219 89.980469 158.320312 86.035156 155.574219 C 85.9375 155.507812 85.828125 155.660156 85.910156 155.742188 C 88.671875 158.558594 93.285156 158.960938 97.628906 158.550781 C 96.484375 158.910156 95.328125 159.230469 94.132812 159.457031 C 92.097656 159.835938 89.894531 159.832031 87.988281 158.957031 C 86.960938 158.488281 86.425781 157.476562 85.8125 156.597656 C 84.945312 155.339844 85.84375 154.832031 86.828125 154.59375 C 87.777344 154.792969 88.769531 154.898438 89.757812 154.890625 Z M 94.738281 153.480469 C 96.558594 153.796875 98.601562 153.964844 100.679688 153.976562 C 97.871094 154.691406 94.863281 154.996094 92.117188 154.617188 C 93.066406 154.394531 93.957031 154.015625 94.738281 153.480469 Z M 138.761719 76.289062 C 138.746094 76.070312 138.421875 76.066406 138.421875 76.289062 C 138.421875 76.597656 138.402344 76.894531 138.394531 77.203125 C 138.191406 69.375 135.46875 61.714844 131.84375 54.855469 C 131.796875 54.769531 131.75 54.691406 131.703125 54.609375 C 130.441406 49.796875 128.945312 45.035156 127.546875 40.300781 C 131.476562 44.019531 134.292969 48.820312 136.566406 53.96875 C 136.652344 54.164062 136.960938 54.023438 136.90625 53.824219 C 133.488281 41.316406 123.378906 34.09375 111.859375 32.332031 C 106.457031 29.066406 99.246094 30.019531 93.433594 31.535156 C 89.914062 32.453125 86.46875 33.796875 83.1875 35.472656 C 78.886719 36.765625 74.847656 38.945312 71.296875 42.15625 C 64.695312 48.132812 61.265625 56.679688 60.191406 65.414062 C 59.96875 65.941406 59.753906 66.476562 59.5625 67.019531 C 59.464844 67.292969 59.390625 67.558594 59.300781 67.828125 C 59.257812 67.765625 59.140625 67.757812 59.117188 67.855469 C 58.878906 68.769531 58.691406 69.679688 58.527344 70.578125 C 57.675781 74.324219 57.671875 77.796875 58.296875 81.074219 C 59.089844 86.753906 61.332031 92.175781 64.703125 97.359375 C 64.785156 97.480469 64.980469 97.367188 64.898438 97.242188 C 62.421875 93.425781 60.660156 89.601562 59.597656 85.671875 C 60.785156 88.816406 62.496094 91.796875 64.507812 94.691406 C 65.730469 97.375 66.925781 100.070312 67.863281 102.878906 C 65.671875 99.53125 63.296875 96.308594 61.023438 93.023438 C 58.21875 84.988281 56.949219 76.007812 58.246094 67.554688 C 58.265625 67.453125 58.105469 67.40625 58.089844 67.511719 C 56.796875 75.386719 57.675781 83.59375 59.8125 91.28125 C 58.886719 89.898438 57.984375 88.503906 57.136719 87.074219 C 54.933594 77.957031 55.960938 67.695312 59.324219 59.511719 C 59.375 59.386719 59.171875 59.300781 59.117188 59.421875 C 53.753906 71.441406 52.929688 92.3125 63.980469 101.855469 C 64.785156 103.359375 65.648438 104.835938 66.621094 106.242188 C 68.628906 109.167969 71.699219 112.914062 75.207031 114.007812 C 75.363281 114.054688 75.484375 113.9375 75.515625 113.800781 C 75.804688 114.277344 76.09375 114.75 76.390625 115.21875 C 77.890625 117.585938 79.257812 119.839844 80.4375 122.152344 C 80.972656 123.996094 81.570312 125.828125 82.167969 127.65625 C 82.367188 129.609375 82.511719 131.570312 82.574219 133.539062 C 81.636719 133.78125 80.867188 134.367188 80.210938 135.140625 C 79.832031 135.046875 79.449219 134.957031 79.074219 134.859375 C 78.730469 134.765625 78.59375 135.285156 78.929688 135.386719 C 79.21875 135.472656 79.519531 135.554688 79.816406 135.640625 L 79.78125 135.695312 C 78.992188 136.101562 78.765625 136.578125 78.933594 137.085938 C 78.488281 137.90625 78.09375 138.777344 77.730469 139.59375 C 77.621094 139.84375 77.710938 140.070312 77.964844 140.171875 C 78.328125 140.3125 78.734375 140.46875 79.179688 140.628906 C 78.769531 141.257812 78.617188 141.933594 78.652344 142.613281 C 77.957031 143.527344 77.863281 144.808594 78.144531 145.882812 C 78.636719 147.742188 80.054688 148.71875 81.65625 148.984375 L 81.65625 149.003906 C 80.351562 150.796875 81.808594 152.648438 84.074219 153.695312 C 84.683594 153.976562 85.363281 154.203125 86.066406 154.390625 C 85.40625 154.535156 84.847656 154.792969 84.792969 155.308594 C 84.585938 157.277344 86.539062 159.179688 88.15625 159.945312 C 91.828125 161.691406 97.589844 160.164062 101.429688 158 C 102.4375 157.808594 103.390625 157.597656 104.25 157.386719 C 105.652344 157.042969 110.269531 155.558594 111.347656 153.609375 C 111.476562 153.859375 111.605469 154.109375 111.738281 154.355469 C 112.046875 154.929688 112.316406 155.566406 112.945312 155.820312 C 113.042969 155.859375 113.144531 155.761719 113.144531 155.667969 C 113.152344 155.0625 112.777344 154.648438 112.460938 154.15625 C 112.171875 153.699219 111.863281 153.242188 111.582031 152.773438 C 111.578125 152.621094 111.550781 152.464844 111.496094 152.308594 C 111.558594 152.28125 111.617188 152.257812 111.675781 152.230469 C 112.3125 152.601562 112.742188 153.042969 112.882812 153.828125 C 112.902344 153.960938 113.082031 153.910156 113.09375 153.800781 C 113.183594 152.953125 112.769531 152.4375 112.152344 152.023438 C 115.347656 150.546875 116.839844 148.195312 114.554688 144.824219 C 114.425781 144.628906 114.148438 144.757812 114.1875 144.980469 C 114.683594 147.828125 114.359375 149.910156 111.597656 151.269531 C 111.402344 151.363281 111.199219 151.441406 110.996094 151.519531 L 110.886719 151.421875 L 110.878906 151.402344 C 110.847656 151.320312 110.785156 151.285156 110.714844 151.265625 C 110.625 151.1875 110.554688 151.105469 110.449219 151.027344 C 109.980469 150.675781 109.417969 151.4375 109.835938 151.824219 L 109.90625 151.90625 C 109.039062 152.160156 108.132812 152.335938 107.210938 152.445312 C 107.710938 152.03125 108.160156 151.59375 108.527344 151.113281 C 108.671875 150.929688 108.394531 150.679688 108.214844 150.800781 C 107.210938 151.457031 106.019531 152.074219 104.714844 152.628906 C 104.140625 152.648438 103.574219 152.660156 103.023438 152.675781 C 98.199219 152.757812 93.476562 152.007812 88.816406 150.851562 C 88.671875 150.8125 88.5625 150.996094 88.671875 151.105469 C 89.574219 152.039062 91.324219 152.757812 93.515625 153.242188 C 92.632812 153.53125 91.722656 153.714844 90.796875 153.785156 C 90.796875 153.703125 90.75 153.625 90.636719 153.628906 C 89.726562 153.664062 88.789062 153.542969 87.875 153.308594 C 86.433594 152.546875 85.1875 151.464844 84.257812 149.980469 C 84.144531 149.804688 83.90625 149.960938 83.984375 150.144531 C 84.355469 150.996094 84.910156 151.726562 85.554688 152.378906 C 84.519531 151.796875 83.601562 151.027344 82.925781 150.066406 C 82.648438 149.683594 82.550781 149.351562 82.558594 149.066406 C 83.5 149.058594 84.445312 148.808594 85.292969 148.359375 C 85.351562 148.367188 85.410156 148.367188 85.46875 148.378906 C 85.566406 148.394531 85.679688 148.355469 85.703125 148.242188 L 85.714844 148.144531 L 85.71875 148.144531 C 86.003906 148.179688 86.269531 148.207031 86.5 148.230469 C 86.945312 148.273438 87.40625 148.3125 87.867188 148.347656 C 90.21875 148.773438 92.605469 149.019531 94.960938 149.132812 C 96.605469 149.214844 98.679688 149.234375 100.773438 149.011719 C 104.855469 148.867188 109.101562 147.507812 111.964844 145.65625 C 112.761719 145.140625 114.039062 144.3125 114.957031 143.335938 C 115.394531 144.019531 115.929688 144.628906 116.59375 145.125 C 116.78125 145.265625 117.023438 144.996094 116.90625 144.808594 C 116.410156 144.015625 116.027344 143.179688 115.710938 142.324219 C 115.921875 141.941406 116.066406 141.542969 116.066406 141.140625 C 116.066406 141.019531 116.027344 140.933594 116 140.832031 C 116.085938 140.828125 116.160156 140.828125 116.242188 140.828125 C 116.558594 140.828125 116.765625 140.574219 116.785156 140.285156 C 116.53125 140.261719 116.277344 140.222656 116.015625 140.132812 C 115.675781 140.03125 115.359375 139.886719 115.027344 139.761719 L 114.960938 139.765625 L 114.957031 139.734375 C 114.691406 139.632812 114.414062 139.550781 114.152344 139.429688 C 114.019531 139.378906 113.90625 139.304688 113.789062 139.242188 C 114.984375 137.882812 115.464844 135.632812 114.441406 134.269531 C 114.414062 130.574219 114.1875 126.890625 114.753906 123.222656 L 114.710938 123.210938 C 114.085938 126.839844 114.28125 130.464844 114.316406 134.125 C 114.257812 134.054688 114.210938 133.976562 114.144531 133.914062 C 113.179688 133.039062 110.757812 133.5625 109.632812 133.644531 C 107.335938 133.800781 105.125 134.714844 102.882812 135.265625 C 102.519531 135.304688 102.152344 135.351562 101.789062 135.394531 C 101.558594 135.460938 101.332031 135.53125 101.09375 135.578125 C 98.683594 136.066406 96.304688 135.527344 93.898438 135.355469 C 93.289062 135.308594 92.769531 135.136719 92.324219 134.882812 C 91.457031 134.8125 90.585938 134.734375 89.707031 134.652344 C 89.410156 134.625 89.136719 134.566406 88.878906 134.484375 C 88.707031 134.472656 88.535156 134.472656 88.359375 134.457031 C 88.445312 134.425781 88.527344 134.402344 88.609375 134.375 C 88.328125 134.257812 88.070312 134.113281 87.84375 133.941406 C 87.492188 134.027344 87.144531 134.09375 86.789062 134.195312 C 86.328125 134.328125 86.34375 134.976562 86.789062 135.117188 C 90.933594 136.410156 95.34375 136.878906 99.699219 136.855469 C 98.753906 137.007812 97.785156 137.128906 96.769531 137.195312 C 93.316406 137.425781 89.832031 137.109375 86.398438 136.511719 C 86.644531 128.078125 84.671875 120.4375 81.15625 112.664062 C 79.589844 109.203125 77.605469 106.628906 74.84375 104.070312 C 73.054688 102.410156 71.261719 100.808594 69.726562 99 C 69.4375 98.582031 69.152344 98.160156 68.871094 97.742188 L 68.882812 97.714844 C 68.753906 97.542969 68.625 97.367188 68.492188 97.195312 C 68.097656 96.613281 67.707031 96.035156 67.316406 95.453125 C 67.144531 95.105469 66.964844 94.761719 66.8125 94.390625 C 66.742188 94.210938 66.601562 94.15625 66.457031 94.152344 C 64.710938 91.472656 63.125 88.722656 61.957031 85.78125 C 62.621094 86.929688 63.425781 88.011719 64.367188 89.019531 C 64.421875 89.601562 64.476562 90.1875 64.527344 90.761719 C 64.53125 90.816406 64.617188 90.820312 64.613281 90.761719 C 64.589844 90.246094 64.5625 89.722656 64.53125 89.199219 C 64.941406 89.621094 65.367188 90.035156 65.835938 90.429688 C 66.015625 90.578125 66.273438 90.328125 66.097656 90.164062 C 65.507812 89.621094 64.976562 89.050781 64.484375 88.460938 C 63.992188 80.625 62.902344 71.964844 63.640625 63.839844 C 63.753906 63.261719 63.867188 62.679688 64 62.109375 C 65.441406 59.511719 67.207031 57.097656 69.210938 54.871094 C 66.8125 59.691406 65.4375 65.035156 65.40625 70.683594 C 65.40625 70.804688 65.59375 70.804688 65.59375 70.683594 C 65.691406 64.40625 67.496094 58.621094 70.476562 53.535156 C 76.53125 47.351562 84.457031 42.800781 92.4375 40.324219 C 98.265625 38.511719 104.515625 37.941406 110.515625 39.121094 C 114.871094 41.101562 118.558594 44.3125 121.726562 48.378906 C 121.828125 48.511719 122.042969 48.335938 121.957031 48.199219 C 119.625 44.523438 116.703125 41.777344 113.34375 39.847656 C 119.449219 41.792969 124.027344 46.015625 127.550781 51.421875 C 128.410156 52.742188 129.199219 54.101562 129.953125 55.460938 C 130.300781 56.238281 130.648438 57.015625 130.972656 57.796875 C 131.566406 59.234375 132.140625 60.714844 132.683594 62.21875 C 133.507812 66.347656 134.0625 70.542969 134.105469 74.886719 C 134.207031 86.179688 129.722656 95.683594 126.109375 105.925781 C 124.945312 107.878906 123.832031 109.84375 122.847656 111.855469 C 121.652344 113.894531 120.539062 115.96875 119.570312 118.089844 C 119.578125 117.929688 119.605469 117.773438 119.613281 117.613281 C 119.621094 117.386719 119.410156 117.269531 119.21875 117.289062 C 119.257812 117.171875 119.296875 117.050781 119.335938 116.929688 C 119.359375 116.847656 119.234375 116.8125 119.207031 116.894531 C 119.148438 117.054688 119.09375 117.21875 119.035156 117.382812 L 118.972656 117.4375 C 117.957031 119.328125 117.433594 121.355469 117.042969 123.417969 C 116.425781 125.429688 115.855469 127.457031 115.335938 129.492188 C 115.304688 129.617188 115.492188 129.667969 115.523438 129.542969 C 115.882812 128.128906 116.289062 126.730469 116.710938 125.335938 C 116.558594 126.257812 116.421875 127.179688 116.253906 128.097656 C 116.0625 128.640625 115.882812 129.1875 115.710938 129.734375 C 115.675781 129.753906 115.640625 129.78125 115.628906 129.828125 C 115.464844 130.527344 115.222656 131.171875 115.085938 131.875 C 115 132.320312 115.660156 132.511719 115.769531 132.0625 C 115.882812 131.59375 116.019531 131.125 116.15625 130.660156 C 116.476562 129.875 116.726562 129.0625 116.925781 128.230469 C 117.203125 127.410156 117.488281 126.589844 117.769531 125.765625 C 117.96875 125.800781 118.171875 125.828125 118.375 125.867188 C 118.617188 124.878906 118.882812 123.898438 119.203125 122.933594 C 119.058594 123.929688 118.980469 124.949219 118.9375 125.980469 C 119.0625 126.011719 119.195312 126.042969 119.320312 126.074219 C 119.691406 123.050781 120.433594 120.191406 121.453125 117.441406 C 123.21875 113.75 125.390625 110.199219 127.59375 106.730469 C 131.835938 100.050781 135.726562 93.734375 137.472656 86.226562 C 138.433594 83.035156 138.957031 79.722656 138.761719 76.289062 "/>
</g>
</g>
</svg>
